<?xml version="1.0" encoding="UTF-8" standalone="no"?>
<!DOCTYPE svg PUBLIC "-//W3C//DTD SVG 1.1//EN" "http://www.w3.org/Graphics/SVG/1.1/DTD/svg11.dtd">
<svg width="100%" height="100%" viewBox="0 0 1250 1250" version="1.1" xmlns="http://www.w3.org/2000/svg" xmlns:xlink="http://www.w3.org/1999/xlink" xml:space="preserve" xmlns:serif="http://www.serif.com/" style="fill-rule:evenodd;clip-rule:evenodd;stroke-miterlimit:1.5;">
    <g id="Layer-2" serif:id="Layer 2" transform="matrix(1,0,0,1,-384.684,-8377.52)">
        <g id="path23612" transform="matrix(1,0,0,1,0,8000.1)">
            <path d="M1161.33,428.184C1111.32,427.717 774.629,470.093 606.182,721.646C689.87,538.98 849.703,435.219 849.703,435.219C845.014,430.369 547.537,632.371 512.078,944.24C493.282,744.272 579.777,574.588 579.777,574.588C573.548,572.806 428.847,871.281 528.324,1149.88C528.666,1151.14 528.988,1152.4 529.34,1153.66C529.713,1155 530.402,1156.52 531.352,1158.16C533.237,1163.18 535.206,1168.2 537.256,1173.21C431.084,1013.2 421.762,834.834 421.762,834.834C415.584,836.379 438.581,1156.04 653.455,1348.85C656.118,1351.56 658.811,1354.27 661.555,1356.96C662.835,1358.21 664.723,1359.47 667.051,1360.66C679.285,1370.95 692.121,1380.81 705.559,1390.2C517.851,1307.61 411.012,1143.04 411.012,1143.04C405.618,1148.25 656.082,1515.61 1028.99,1481.91C792.91,1543.67 569.746,1429.91 569.746,1429.91C567.927,1436.26 878.939,1586.9 1162.33,1474.86C1008.71,1567.37 846.938,1575.82 846.938,1575.82C848.499,1582.07 1175.24,1558.49 1367.29,1336.94C1280.38,1487.59 1150.3,1572.04 1150.3,1572.04C1154.31,1576.19 1372.86,1428.77 1457.96,1190.62C1467.99,1166.51 1476.62,1140.94 1483.6,1113.81C1484.52,1110.26 1484.15,1104.53 1482.79,1098.02C1485.34,1083.85 1487.35,1069.44 1488.79,1054.79C1521.09,1268.49 1425.07,1456.88 1425.07,1456.88C1431.23,1458.64 1572.84,1166.69 1479.7,890.748C1477.14,878.479 1474.14,866.098 1470.66,853.602C1469.39,849.042 1464.46,842.404 1457.89,835.986C1445.64,809.501 1430.95,783.36 1413.46,757.852C1552.44,927.646 1563.71,1143.38 1563.71,1143.38C1570.46,1141.69 1542.42,760.718 1267.77,579.756C1483.95,653.222 1608.36,844.861 1608.36,844.861C1613.16,840.212 1414.6,547.695 1107.22,508.186C1105.38,507.695 1103.56,507.193 1101.71,506.717C1100.83,506.492 1099.81,506.351 1098.69,506.275C1293.64,491.73 1456.88,574.936 1456.88,574.936C1458.79,568.281 1118.05,403.607 824.92,547.391C986.016,438.513 1167.59,429.023 1167.59,429.023C1167.46,428.529 1165.3,428.221 1161.33,428.184ZM1054.65,553.428C1064.96,560.405 1082.95,567.432 1111.77,573.945C1192.79,592.261 1259.33,624.115 1313.98,663.703C1281.54,658.732 1244.89,669.858 1318.38,737.768C1354.01,770.682 1383.04,805.125 1406.52,840.352C1406.46,852.748 1409.63,870.698 1417.47,895.93C1435.34,953.434 1443.23,1007.9 1443.57,1059.08C1434.48,1066.58 1424.98,1085.81 1416.37,1123.87C1402.69,1184.37 1381.47,1236.8 1355.11,1282.23C1344.99,1276.23 1324.95,1284.16 1288.86,1323.23C1249.2,1366.15 1207.32,1399.52 1164.51,1425.12C1172.56,1404.35 1161.02,1387.24 1087.12,1410.2C1036.05,1426.08 987.376,1434.07 941.264,1435.91C936.806,1425.51 918.017,1414.28 873.707,1404.27C819.212,1391.95 771.281,1373.5 729.1,1350.7C727.724,1339.11 716.001,1321 686.457,1293.7C647.304,1257.53 616.121,1219.5 591.512,1180.62C595.459,1169.47 593.973,1148.14 582.533,1111.33C564.713,1053.99 556.817,999.664 556.43,948.602C569.248,953.801 584.784,940.121 598.154,880.971C612.747,816.414 635.939,761.061 664.783,713.582C670.761,730.566 690.522,732.749 737.768,681.617C775.751,640.509 815.769,608.181 856.68,583.031C864.887,590.776 886.743,591.83 932.242,577.691C974.734,564.487 1015.57,556.722 1054.65,553.428Z" style="fill:white;stroke:black;stroke-width:8px;"/>
        </g>
        <path id="path23603" d="M1217.84,9302.14C787.879,9191.55 747.918,8667.46 755.832,8665.48C755.832,8665.48 780.515,9138.33 1207.78,9234.91C1343.63,9265.62 1239.67,9307.76 1217.84,9302.14Z" style="fill:white;stroke:white;stroke-width:8px;"/>
        <g id="g33899">
            <circle id="path23530" cx="1000" cy="9000.1" r="486.001" style="stroke:white;stroke-width:8px;"/>
            <circle id="circle23532" cx="1000" cy="9000.1" r="457.084" style="fill:white;stroke:white;stroke-width:8px;"/>
            <circle id="circle23534" cx="1000" cy="9000.1" r="434.011" style="stroke:white;stroke-width:8px;"/>
        </g>
    </g>
</svg>
