<?xml version="1.0" encoding="UTF-8" standalone="no"?>
<!DOCTYPE svg PUBLIC "-//W3C//DTD SVG 1.1//EN" "http://www.w3.org/Graphics/SVG/1.1/DTD/svg11.dtd">
<svg width="100%" height="100%" viewBox="0 0 2000 2000" version="1.1" xmlns="http://www.w3.org/2000/svg" xmlns:xlink="http://www.w3.org/1999/xlink" xml:space="preserve" xmlns:serif="http://www.serif.com/" style="fill-rule:evenodd;clip-rule:evenodd;stroke-linejoin:round;stroke-miterlimit:2;">
    <g id="Layer-2" serif:id="Layer 2" transform="matrix(1.25464,0,0,1.25464,-331.963,-10278.7)">
        <ellipse id="path38500" cx="772.007" cy="9577.29" rx="135.23" ry="100.994" style="fill:rgb(229,128,255);fill-opacity:0.8;"/>
        <g id="g38438" transform="matrix(0.729,0,0,0.729,1785.57,1997.86)">
            <path id="path38428" d="M-1004.94,9027.82C-1135.82,8834.43 -777.142,8798.44 -777.142,8798.44C-777.142,8798.44 -751.673,8383.56 -323.658,8777.9C-10.094,9066.79 -874.067,9221.2 -1004.94,9027.82Z" style="fill:rgb(190,13,236);fill-opacity:0.8;"/>
        </g>
        <path id="path38430" d="M1420.25,8192.64C1406.31,8192.08 1392.94,8194.32 1380.58,8199.28C1335.59,8217.34 1308.36,8269.74 1309.71,8335.66C1292.02,8332.04 1273.67,8330.19 1255.23,8330.16C1255.22,8330.16 1255.22,8330.16 1255.22,8330.16C1149.44,8330.16 1062.4,8390.17 1062.4,8463.09L1062.4,8463.09C1062.4,8536.01 1149.44,8596.01 1255.22,8596.01C1255.22,8596.01 1255.22,8596.01 1255.23,8596.01C1277.3,8595.97 1299.19,8593.31 1319.96,8588.15C1353.42,8631.3 1418.85,8658.36 1489.83,8658.41C1595.6,8658.41 1682.65,8598.4 1682.65,8525.48C1682.65,8525.48 1682.65,8525.48 1682.65,8525.48C1682.58,8480.52 1649.42,8438.53 1594.68,8414.08C1593.34,8385.78 1586.86,8356.56 1575.75,8328.73C1544.35,8250.49 1481.05,8195.09 1420.25,8192.64Z" style="fill:rgb(229,128,255);fill-opacity:0.8;fill-rule:nonzero;"/>
        <g id="g38447" transform="matrix(-0.478297,0,0,0.478297,328.182,5370.81)">
            <g opacity="0.8">
                <path id="path38445" d="M-1051.03,9027.82C-1257.45,8800.66 -777.142,8798.44 -777.142,8798.44C-777.142,8798.44 -804.53,8391.04 -369.742,8777.9C65.047,9164.76 -648.658,9035.59 -648.658,9035.59C-648.658,9035.59 -862.186,9235.62 -1051.03,9027.82Z" style="fill:rgb(190,13,236);fill-opacity:0.98;"/>
            </g>
        </g>
        <path id="path38449" d="M479.45,9481.06C488.592,9480.69 497.364,9482.16 505.473,9485.41C534.995,9497.26 552.861,9531.64 551.974,9574.89C563.578,9572.51 575.616,9571.3 587.72,9571.28C587.72,9571.28 587.72,9571.28 587.721,9571.28C657.122,9571.28 714.231,9610.65 714.231,9658.49L714.231,9658.5C714.231,9706.34 657.122,9745.71 587.721,9745.71C587.72,9745.71 587.72,9745.71 587.72,9745.71C573.238,9745.68 558.872,9743.93 545.247,9740.55C523.29,9768.86 480.366,9786.61 433.799,9786.64C364.397,9786.64 307.288,9747.27 307.288,9699.43C307.288,9699.43 307.288,9699.43 307.288,9699.43C307.335,9669.93 329.09,9642.38 365.001,9626.34C365.88,9607.77 370.134,9588.6 377.422,9570.34C398.022,9519.01 439.553,9482.66 479.45,9481.06Z" style="fill:rgb(229,128,255);fill-opacity:0.8;fill-rule:nonzero;"/>
        <path id="path38474" d="M1329.55,8831.73C1310.16,8837.92 1292.34,8846.01 1276.69,8855.73C1219.72,8891.11 1197.04,8944.63 1217.67,8995.03C1192.23,9000.64 1166.37,9007.93 1140.9,9016.68C995.835,9066.66 892.97,9153.77 912.227,9210.34C912.337,9210.66 912.451,9210.98 912.569,9211.3C933.183,9267.4 1068.8,9272.84 1214.05,9223.38C1214.88,9223.1 1215.71,9222.82 1216.54,9222.53C1246.99,9212 1276.46,9199.53 1303.66,9185.66C1362.13,9203.16 1460.13,9193 1558.11,9159.28C1703.18,9109.3 1806.04,9022.19 1786.78,8965.63C1786.67,8965.31 1786.56,8964.99 1786.44,8964.67C1773.55,8929.89 1715.84,8913.14 1633.33,8920.24C1623.43,8898.96 1606.17,8879.42 1582.91,8863.16C1517.32,8817.5 1414.18,8804.71 1329.55,8831.73Z" style="fill:rgb(229,128,255);fill-opacity:0.8;fill-rule:nonzero;"/>
        <g id="g38455" transform="matrix(-1.49033,0,0,0.865177,201.354,1367.31)">
            <g opacity="0.8">
                <path id="path38453" d="M-1051.03,9027.82C-1257.45,8800.66 -777.142,8798.44 -777.142,8798.44C-777.142,8798.44 -818.402,8441.3 -369.742,8777.9C-258.737,8861.18 -214.158,8966.12 -290.544,9066.01C-379.404,9182.2 -862.186,9235.63 -1051.03,9027.82Z" style="fill:rgb(205,59,243);"/>
            </g>
        </g>
        <path id="path38457" d="M639.279,8629.12C657.576,8630.07 674.996,8635.49 690.957,8645.2C749.062,8680.56 782.18,8769.38 777.156,8876.39C800.523,8872.86 824.671,8872.29 848.861,8874.71C866.232,8876.47 883.512,8879.76 900.424,8884.53C1016.53,8917.24 1098.22,9014.57 1095.12,9116.52C1094.67,9131.37 1092.43,9146 1088.44,9160.17C1061.02,9257.49 955.002,9319.08 835.745,9306.96C806.808,9303.94 778.228,9296.71 751.254,9285.56C705.248,9351.26 618.134,9386.54 525.071,9377.16C507.7,9375.39 490.421,9372.1 473.509,9367.34C357.405,9334.63 275.717,9237.29 278.811,9135.34C281.123,9062.25 326.669,8998.39 399.639,8965.92C402.793,8920.1 412.735,8873.44 428.673,8829.68C473.7,8706.64 559.43,8625 639.279,8629.12Z" style="fill:rgb(229,128,255);fill-opacity:0.8;fill-rule:nonzero;"/>
    </g>
</svg>
