<?xml version="1.0" encoding="UTF-8" standalone="no"?>
<!DOCTYPE svg PUBLIC "-//W3C//DTD SVG 1.1//EN" "http://www.w3.org/Graphics/SVG/1.1/DTD/svg11.dtd">
<svg width="100%" height="100%" viewBox="0 0 398 222" version="1.1" xmlns="http://www.w3.org/2000/svg" xmlns:xlink="http://www.w3.org/1999/xlink" xml:space="preserve" xmlns:serif="http://www.serif.com/" style="fill-rule:evenodd;clip-rule:evenodd;stroke-linejoin:round;stroke-miterlimit:2;">
    <g transform="matrix(1,0,0,1,-1739.06,-252.183)">
        <g transform="matrix(1,0,0,1,-37,684)">
            <g id="Blue-Gas-Giant" serif:id="Blue Gas Giant" transform="matrix(1.55905,0,0,1.55905,-886.777,243.008)">
                <g id="Blue-Gas-Giant1" serif:id="Blue Gas Giant" transform="matrix(0.363743,0,0,0.363743,1131.63,-260.877)">
                    <circle cx="1932.8" cy="-277.8" r="188.8" style="fill:rgb(44,189,233);"/>
                    <clipPath id="_clip1">
                        <circle cx="1932.8" cy="-277.8" r="188.8"/>
                    </clipPath>
                    <g clip-path="url(#_clip1)">
                        <g transform="matrix(1.7845,0,0,1.7845,-1368.17,366.048)">
                            <path d="M1953.49,-382.979C1953.49,-382.979 1953.5,-383.094 1951,-392.14C1949.15,-398.835 1937.27,-420.516 1937.27,-420.516C1937.27,-420.516 1889.44,-411.037 1858.11,-432.775C1845.32,-441.649 1824,-466.599 1824,-466.599C1824,-466.599 1812.15,-460.745 1803.45,-457.281C1794.74,-453.816 1788.33,-448.834 1788.33,-448.834C1788.33,-448.834 1818.4,-389.773 1851.38,-371.888C1895.07,-348.199 1953.49,-382.979 1953.49,-382.979Z" style="fill:rgb(4,144,146);fill-opacity:0.5;"/>
                        </g>
                        <g transform="matrix(1.7845,0,0,1.7845,-1412.9,521.548)">
                            <path d="M1965.62,-392.484C1965.62,-392.484 1972.57,-406.082 1975.12,-415.112C1978.38,-426.621 1979.97,-438.673 1980.66,-447.939C1980.66,-447.939 1906.19,-411.037 1874.87,-432.775C1862.08,-441.649 1793.07,-517.294 1793.07,-517.294C1793.07,-517.294 1782.58,-500.435 1777.05,-489.577C1772.79,-481.23 1769.07,-455.068 1769.07,-455.068C1769.07,-455.068 1816.29,-413.008 1849.27,-395.123C1892.96,-371.434 1965.62,-392.484 1965.62,-392.484Z" style="fill:rgb(95,242,166);fill-opacity:0.5;"/>
                        </g>
                    </g>
                    <path d="M1932.8,-472.146C1879.55,-471.141 1831.7,-448.76 1797.38,-413.218C1763.52,-378.156 1742.79,-330.336 1743.63,-277.8C1743.58,-225.578 1764.92,-178.43 1798.97,-143.967C1833.18,-109.335 1880.33,-87.412 1932.8,-86.819C1985.74,-86.217 2034.02,-107.128 2069.01,-141.59C2083.35,-155.713 2095.49,-172.104 2104.68,-190.225C2118,-216.496 2125.11,-246.35 2124.79,-277.8C2124.54,-303.774 2118.92,-328.405 2109.55,-351.008C2099.84,-374.432 2086.01,-395.699 2068.58,-413.583C2034.06,-449.013 1986.12,-471.325 1932.8,-472.146ZM1932.8,-461.052C1983.69,-461.836 2030.15,-441.917 2063.97,-408.967C2081.32,-392.062 2095.52,-371.815 2104.96,-349.102C2114.07,-327.178 2118.65,-303.004 2118.41,-277.8C2118.1,-247.543 2110.37,-219.14 2097.39,-193.948C2088.48,-176.628 2077.08,-160.807 2063.54,-147.058C2030.16,-113.173 1984.07,-91.764 1932.8,-91.181C1881.07,-90.596 1833.82,-110.954 1799.68,-144.681C1765.38,-178.568 1744.42,-225.819 1744.37,-277.8C1745.2,-329.476 1766.78,-376.028 1801.27,-409.332C1835.28,-442.178 1881.84,-462.014 1932.8,-461.052Z"/>
                </g>
                <g transform="matrix(0.641416,0,0,0.641416,592.526,-594.598)">
                    <path d="M2039.34,332.655C2053.97,333.906 2067.35,335.537 2079.13,337.396C2101.17,340.872 2117.74,345.418 2126.83,350.444C2133.53,354.147 2136.51,358.622 2136.56,362.75C2136.61,366.906 2133.62,371.41 2126.97,375.3C2117.96,380.568 2101.4,385.388 2079.38,389.571C2043.85,396.323 1993.79,401.479 1938.17,402.801C1901.92,403.289 1867.88,402.905 1838.78,399.704C1823.07,397.976 1808.89,395.214 1796.47,392.495C1774.26,387.637 1757.78,381.92 1748.84,376.26C1741.96,371.907 1738.88,367.137 1739.07,362.75C1739.25,358.468 1742.28,353.764 1749.34,350.124C1758.58,345.361 1775.25,341.34 1797.39,338.415C1808.1,337 1820.09,335.942 1833.12,335.072C1832.93,335.795 1832.74,336.52 1832.57,337.25C1827.52,338.002 1822.64,338.79 1817.93,339.58C1790.16,344.242 1768.81,349.961 1756.9,356.035C1753.93,357.55 1751.65,359.094 1750.11,360.646C1749.4,361.369 1748.9,362.023 1748.93,362.75C1748.95,363.167 1749.39,363.419 1749.74,363.806C1750.74,364.888 1752.3,365.803 1754.22,366.778C1762.86,371.149 1778.51,374.261 1799.14,376.816C1811.4,378.333 1825.35,379.202 1840.63,380.467C1869.3,382.84 1902.56,385.652 1938.17,386.132C1983.35,387.21 2024.97,385.805 2057.94,382.211C2085.72,379.182 2107.27,374.732 2119.4,369.353C2122.46,367.994 2124.87,366.613 2126.5,365.135C2127.4,364.314 2128.13,363.622 2128.14,362.75C2128.16,360.784 2125.96,359.355 2122.81,357.518C2114.32,352.565 2098.7,348.114 2077.95,344.293C2066.95,342.266 2054.52,340.48 2040.97,338.9C2040.49,336.794 2039.94,334.713 2039.34,332.655Z" style="fill:url(#_Radial2);"/>
                </g>
            </g>
        </g>
    </g>
    <defs>
        <radialGradient id="_Radial2" cx="0" cy="0" r="1" gradientUnits="userSpaceOnUse" gradientTransform="matrix(377.599,0,0,377.599,1744,-277.8)"><stop offset="0" style="stop-color:rgb(41,123,172);stop-opacity:1"/><stop offset="0.48" style="stop-color:rgb(10,112,167);stop-opacity:1"/><stop offset="1" style="stop-color:rgb(0,108,166);stop-opacity:1"/></radialGradient>
    </defs>
</svg>
