<?xml version="1.0" encoding="UTF-8" standalone="no"?>
<!DOCTYPE svg PUBLIC "-//W3C//DTD SVG 1.1//EN" "http://www.w3.org/Graphics/SVG/1.1/DTD/svg11.dtd">
<svg width="100%" height="100%" viewBox="0 0 373 208" version="1.1" xmlns="http://www.w3.org/2000/svg" xmlns:xlink="http://www.w3.org/1999/xlink" xml:space="preserve" xmlns:serif="http://www.serif.com/" style="fill-rule:evenodd;clip-rule:evenodd;stroke-linejoin:round;stroke-miterlimit:2;">
    <g transform="matrix(1,0,0,1,-2178.39,-259.075)">
        <g transform="matrix(1,0,0,1,-37,684)">
            <g id="Yellow-Gas-Giant" serif:id="Yellow Gas Giant" transform="matrix(1.45869,0,0,1.45869,-275.713,206.684)">
                <g id="Yellow-Gas-Giant1" serif:id="Yellow Gas Giant" transform="matrix(0.363743,0,0,0.363743,1131.63,-260.877)">
                    <circle cx="1932.8" cy="-277.8" r="188.8" style="fill:rgb(194,150,20);"/>
                    <clipPath id="_clip1">
                        <circle cx="1932.8" cy="-277.8" r="188.8"/>
                    </clipPath>
                    <g clip-path="url(#_clip1)">
                        <g transform="matrix(1.7845,0,0,1.7845,-1368.17,366.048)">
                            <path d="M1953.49,-382.979C1953.49,-382.979 1953.5,-383.094 1951,-392.14C1949.15,-398.835 1937.27,-420.516 1937.27,-420.516C1937.27,-420.516 1889.44,-411.037 1858.11,-432.775C1845.32,-441.649 1824,-466.599 1824,-466.599C1824,-466.599 1812.15,-460.745 1803.45,-457.281C1794.74,-453.816 1788.33,-448.834 1788.33,-448.834C1788.33,-448.834 1818.4,-389.773 1851.38,-371.888C1895.07,-348.199 1953.49,-382.979 1953.49,-382.979Z" style="fill:rgb(146,103,4);fill-opacity:0.5;"/>
                        </g>
                        <g transform="matrix(1.7845,0,0,1.7845,-1403.01,462.969)">
                            <path d="M1973.01,-392.484C1973.01,-392.484 1974.93,-405.73 1975.12,-415.112C1975.39,-428.143 1967.9,-454.313 1967.9,-454.313C1967.9,-454.313 1911.62,-432.16 1880.29,-453.898C1867.5,-462.772 1823.7,-512.014 1823.7,-512.014C1823.7,-512.014 1796.31,-492.43 1788.66,-484.741C1782.05,-478.098 1777.77,-469.425 1777.77,-469.425C1777.77,-469.425 1816.29,-413.008 1849.27,-395.123C1892.96,-371.434 1973.01,-392.484 1973.01,-392.484Z" style="fill:rgb(146,82,4);fill-opacity:0.5;"/>
                        </g>
                        <g transform="matrix(1.7845,0,0,1.7845,-1412.9,521.548)">
                            <path d="M1965.62,-392.484C1965.62,-392.484 1972.57,-406.082 1975.12,-415.112C1978.38,-426.621 1979.97,-438.673 1980.66,-447.939C1980.66,-447.939 1906.19,-411.037 1874.87,-432.775C1862.08,-441.649 1793.07,-517.294 1793.07,-517.294C1793.07,-517.294 1782.58,-500.435 1777.05,-489.577C1772.79,-481.23 1769.07,-455.068 1769.07,-455.068C1769.07,-455.068 1816.29,-413.008 1849.27,-395.123C1892.96,-371.434 1965.62,-392.484 1965.62,-392.484Z" style="fill:rgb(242,208,95);fill-opacity:0.5;"/>
                        </g>
                    </g>
                    <path d="M1932.8,-472.528C1879.47,-471.452 1831.58,-448.989 1797.25,-413.352C1763.41,-378.228 1742.7,-330.366 1743.61,-277.8C1743.56,-225.57 1764.91,-178.425 1798.94,-143.943C1833.16,-109.279 1880.3,-87.303 1932.8,-86.669C1985.8,-86.025 2034.15,-106.92 2069.2,-141.402C2083.56,-155.537 2095.74,-171.948 2104.93,-190.097C2118.26,-216.405 2125.35,-246.309 2125.01,-277.8C2124.74,-303.801 2119.09,-328.447 2109.71,-351.074C2099.99,-374.522 2086.17,-395.824 2068.74,-413.742C2034.19,-449.259 1986.21,-471.649 1932.8,-472.528ZM1932.8,-460.67C1983.61,-461.506 2030.02,-441.675 2063.81,-408.808C2081.15,-391.936 2095.37,-371.726 2104.8,-349.037C2113.91,-327.136 2118.45,-302.977 2118.19,-277.8C2117.86,-247.583 2110.11,-219.231 2097.14,-194.076C2088.24,-176.783 2076.87,-160.981 2063.35,-147.246C2030.03,-113.381 1984.01,-91.953 1932.8,-91.331C1881.09,-90.706 1833.85,-111.009 1799.71,-144.706C1765.39,-178.573 1744.44,-225.828 1744.39,-277.8C1745.28,-329.448 1766.89,-375.953 1801.4,-409.198C1835.4,-441.954 1881.91,-461.697 1932.8,-460.67Z"/>
                </g>
                <g transform="matrix(0.685549,0,0,0.685549,214.38,-610.607)">
                    <path d="M2459.6,334.393C2473.32,335.551 2485.87,337.073 2496.92,338.806C2517.58,342.046 2533.11,346.304 2541.64,351.008C2548.02,354.53 2550.83,358.818 2550.88,362.75C2550.93,366.711 2548.11,371.023 2541.78,374.735C2533.33,379.682 2517.81,384.212 2497.17,388.161C2463.91,394.524 2417.06,399.437 2365,400.759C2331.06,401.248 2299.18,400.967 2271.94,397.944C2257.23,396.312 2243.96,393.669 2232.33,391.085C2211.5,386.459 2196.06,381.036 2187.68,375.696C2181.12,371.514 2178.2,366.942 2178.4,362.75C2178.54,359.429 2180.24,355.924 2184.41,352.975C2189.89,349.092 2200.2,345.523 2214.45,342.768C2228.38,340.077 2246.15,338.29 2266.7,336.895C2266.52,337.582 2266.34,338.272 2266.17,338.966C2261.46,339.683 2256.9,340.432 2252.51,341.181C2226.57,345.606 2206.62,351.008 2195.51,356.717C2193.26,357.875 2191.44,359.066 2190.04,360.246C2189,361.132 2188.22,361.86 2188.26,362.75C2188.27,363.076 2188.67,363.223 2188.95,363.525C2189.86,364.512 2191.3,365.328 2193.06,366.214C2201.14,370.265 2215.75,373.083 2235.01,375.406C2246.47,376.788 2259.51,377.538 2273.8,378.707C2300.6,380.901 2331.7,383.61 2365,384.09C2407.25,385.168 2446.17,383.929 2477.01,380.61C2502.97,377.816 2523.1,373.685 2534.44,368.671C2537.27,367.416 2539.5,366.145 2541.01,364.779C2541.79,364.073 2542.46,363.502 2542.47,362.75C2542.49,360.979 2540.45,359.74 2537.62,358.082C2529.7,353.451 2515.12,349.288 2495.74,345.703C2485.47,343.802 2473.88,342.126 2461.22,340.637C2460.74,338.529 2460.2,336.446 2459.6,334.393Z" style="fill:url(#_Radial2);"/>
                </g>
            </g>
        </g>
    </g>
    <defs>
        <radialGradient id="_Radial2" cx="0" cy="0" r="1" gradientUnits="userSpaceOnUse" gradientTransform="matrix(377.599,0,0,377.599,1744,-277.8)"><stop offset="0" style="stop-color:rgb(172,115,41);stop-opacity:1"/><stop offset="0.48" style="stop-color:rgb(167,84,10);stop-opacity:1"/><stop offset="1" style="stop-color:rgb(166,74,0);stop-opacity:1"/></radialGradient>
    </defs>
</svg>
