<?xml version="1.0" encoding="UTF-8" standalone="no"?>
<!DOCTYPE svg PUBLIC "-//W3C//DTD SVG 1.1//EN" "http://www.w3.org/Graphics/SVG/1.1/DTD/svg11.dtd">
<svg width="100%" height="100%" viewBox="0 0 880 880" version="1.1" xmlns="http://www.w3.org/2000/svg" xmlns:xlink="http://www.w3.org/1999/xlink" xml:space="preserve" xmlns:serif="http://www.serif.com/" style="fill-rule:evenodd;clip-rule:evenodd;stroke-linejoin:round;">
    <g transform="matrix(1,0,0,1,-5109.41,-83.7549)">
        <g id="Gun-Square" serif:id="Gun Square" transform="matrix(1.1,0,0,1.1,5109.41,83.7549)">
            <rect x="0" y="0" width="800" height="800" style="fill:none;"/>
            <clipPath id="_clip1">
                <rect x="0" y="0" width="800" height="800"/>
            </clipPath>
            <g clip-path="url(#_clip1)">
                <g id="gun" transform="matrix(0.363636,0,0,0.363636,400,476.364)">
                    <g transform="matrix(1,0,0,1,-1000,-1000)">
                        <clipPath id="_clip2">
                            <rect x="0" y="0" width="2000" height="2000"/>
                        </clipPath>
                        <g clip-path="url(#_clip2)">
                            <g id="layer2" transform="matrix(1,0,0,1,0,-8087.1)">
                                <rect id="rect360" x="0" y="8000.1" width="2000" height="2000" style="fill:none;"/>
                                <g transform="matrix(1,0,0,1,-0.0002,2000)">
                                    <g id="g4444">
                                        <g id="g6125">
                                            <path id="rect9012" d="M1406.25,6895.1C1406.25,6884.61 1397.73,6876.1 1387.24,6876.1L362.755,6876.1C352.266,6876.1 343.75,6884.61 343.75,6895.1C343.75,6905.59 352.266,6914.11 362.755,6914.11L1387.24,6914.11C1397.73,6914.11 1406.25,6905.59 1406.25,6895.1Z" style="fill:rgb(179,179,179);stroke:rgb(128,128,128);stroke-width:6px;"/>
                                            <path id="rect8993" d="M1681.25,6895.1C1681.25,6855.09 1648.76,6822.6 1608.75,6822.6L691.25,6822.6C651.236,6822.6 618.75,6855.09 618.75,6895.1C618.75,6935.11 651.236,6967.6 691.25,6967.6L1608.75,6967.6C1648.76,6967.6 1681.25,6935.11 1681.25,6895.1Z" style="fill:rgb(178,178,178);stroke:rgb(128,128,128);stroke-width:6px;"/>
                                            <g id="rect9001" transform="matrix(-3.82857e-16,1,-1,-3.82857e-16,0,0)">
                                                <path d="M7469.06,-902.822C7469.06,-924.078 7451.8,-941.336 7430.55,-941.336L6707.66,-941.336C6686.4,-941.336 6669.15,-924.078 6669.15,-902.822C6669.15,-881.565 6686.4,-864.307 6707.66,-864.307L7430.55,-864.307C7451.8,-864.307 7469.06,-881.565 7469.06,-902.822Z" style="fill:rgb(128,128,128);fill-opacity:0.99;"/>
                                            </g>
                                            <g id="rect9003" transform="matrix(-3.82857e-16,1,-1,-3.82857e-16,0,0)">
                                                <path d="M7469.06,-1097.89C7469.06,-1119.15 7451.8,-1136.4 7430.55,-1136.4L6707.66,-1136.4C6686.4,-1136.4 6669.15,-1119.15 6669.15,-1097.89C6669.15,-1076.63 6686.4,-1059.38 6707.66,-1059.38L7430.55,-1059.38C7451.8,-1059.38 7469.06,-1076.63 7469.06,-1097.89Z" style="fill:rgb(128,128,128);fill-opacity:0.99;"/>
                                            </g>
                                            <path id="path9091" d="M941.336,7069.84L850.001,7356.56L1000,7414.6L1150,7356.56L1059.38,7069.84L941.336,7069.84Z" style="fill:rgb(178,178,178);stroke:rgb(128,128,128);stroke-width:6px;stroke-linejoin:miter;stroke-miterlimit:1.5;"/>
                                            <g id="rect4898" transform="matrix(1,0,0,1,0,8000.1)">
                                                <path d="M864.713,-655.926C810.928,-655.866 708.87,-653.74 736.242,-601.096C770.442,-535.318 874.773,-347.924 874.773,-347.924L874.773,87L1129.3,87L1129.27,-347.924C1140.61,-368.3 1231.64,-539.328 1263.76,-601.096C1292.95,-657.25 1174.89,-655.924 1125.23,-655.924L874.773,-655.924C871.67,-655.924 868.299,-655.934 864.713,-655.924L864.713,-655.926Z" style="fill:rgb(178,178,178);fill-rule:nonzero;stroke:rgb(128,128,128);stroke-width:6px;"/>
                                            </g>
                                            <circle id="path8995" cx="1630" cy="6895.1" r="157.5" style="fill:rgb(178,178,178);stroke:rgb(128,128,128);stroke-width:6px;"/>
                                            <circle id="path8997" cx="278.125" cy="6895.1" r="84.375" style="fill:rgb(179,179,179);stroke:rgb(128,128,128);stroke-width:6px;"/>
                                            <path id="rect9005" d="M1627.95,6617.05C1625.62,6617.05 1622.09,6619.91 1616.8,6627.1C1588.31,6665.72 1467.71,6822.01 1467.71,6822.01L1467.71,6967.67C1467.71,6967.67 1588.31,7123.96 1616.8,7162.59C1636.73,7189.62 1631.62,7155.48 1631.77,7137.45C1631.91,7119.43 1631.77,6894.84 1631.77,6894.84C1631.77,6894.84 1631.91,6670.25 1631.77,6652.22C1631.66,6638.99 1634.39,6617.06 1627.95,6617.05Z" style="fill:rgb(128,128,128);fill-rule:nonzero;"/>
                                            <path id="path9010" d="M396.84,6829.32C371.652,6829.32 351.374,6860.38 351.374,6898.96C351.374,6937.53 371.652,6968.59 396.84,6968.59L398.888,6968.59L398.888,6829.32L396.84,6829.32Z" style="fill:rgb(128,128,128);fill-rule:nonzero;"/>
                                            <g id="rect9014" transform="matrix(-3.82857e-16,1,-1,-3.82857e-16,0,0)">
                                                <path d="M6999.95,-471.977C6999.95,-478.942 6994.29,-484.597 6987.33,-484.597L6802.87,-484.597C6795.91,-484.597 6790.25,-478.942 6790.25,-471.977C6790.25,-465.012 6795.91,-459.357 6802.87,-459.357L6987.33,-459.357C6994.29,-459.357 6999.95,-465.012 6999.95,-471.977Z" style="fill:rgb(128,128,128);fill-opacity:0.99;"/>
                                            </g>
                                            <g id="rect9016" transform="matrix(-3.82857e-16,1,-1,-3.82857e-16,0,0)">
                                                <path d="M6999.95,-515.066C6999.95,-522.032 6994.29,-527.687 6987.33,-527.687L6802.87,-527.687C6795.91,-527.687 6790.25,-522.032 6790.25,-515.066C6790.25,-508.101 6795.91,-502.446 6802.87,-502.446L6987.33,-502.446C6994.29,-502.446 6999.95,-508.101 6999.95,-515.066Z" style="fill:rgb(128,128,128);fill-opacity:0.99;"/>
                                            </g>
                                            <g id="rect9018" transform="matrix(-3.82857e-16,1,-1,-3.82857e-16,0,0)">
                                                <path d="M6999.95,-558.155C6999.95,-565.121 6994.29,-570.776 6987.33,-570.776L6802.87,-570.776C6795.91,-570.776 6790.25,-565.121 6790.25,-558.155C6790.25,-551.19 6795.91,-545.535 6802.87,-545.535L6987.33,-545.535C6994.29,-545.535 6999.95,-551.19 6999.95,-558.155Z" style="fill:rgb(128,128,128);fill-opacity:0.99;"/>
                                            </g>
                                            <path id="rect8607" d="M1183.07,7822.04C1183.07,7805.56 1169.69,7792.18 1153.21,7792.18L850.899,7792.18C834.416,7792.18 821.034,7805.56 821.034,7822.04C821.034,7838.52 834.416,7851.91 850.899,7851.91L1153.21,7851.91C1169.69,7851.91 1183.07,7838.52 1183.07,7822.04Z" style="fill:rgb(128,128,128);fill-opacity:0.99;"/>
                                            <path id="rect8609" d="M1183.07,7732.37C1183.07,7715.89 1169.69,7702.51 1153.21,7702.51L850.899,7702.51C834.416,7702.51 821.034,7715.89 821.034,7732.37C821.034,7748.86 834.416,7762.24 850.899,7762.24L1153.21,7762.24C1169.69,7762.24 1183.07,7748.86 1183.07,7732.37Z" style="fill:rgb(128,128,128);fill-opacity:0.99;"/>
                                            <circle id="circle9030" cx="1132.29" cy="7524.27" r="18.75" style="fill:rgb(128,128,128);fill-opacity:0.99;"/>
                                            <circle id="circle9032" cx="867.708" cy="7524.27" r="18.75" style="fill:rgb(128,128,128);fill-opacity:0.99;"/>
                                            <path id="path9089" d="M300.907,6756.56C302.099,6756.56 303.906,6758.02 306.618,6761.7C321.2,6781.48 382.95,6861.49 382.95,6861.49L382.95,6936.08C382.95,6936.08 321.2,7016.1 306.618,7035.87C296.41,7049.71 299.025,7032.23 298.951,7023C298.876,7013.77 298.951,6898.78 298.951,6898.78C298.951,6898.78 298.876,6783.8 298.951,6774.57C299.005,6767.79 297.609,6756.56 300.907,6756.56Z" style="fill:rgb(128,128,128);fill-rule:nonzero;"/>
                                            <path id="path9020" d="M869.748,7376.16C817.965,7376.22 719.706,7378.35 746.059,7430.99C746.289,7431.45 746.493,7432.92 746.832,7432.52C765.938,7409.83 830.8,7408.3 869.748,7408.26C873.2,7408.25 876.446,7408.26 879.434,7408.26L1120.57,7408.26C1157.27,7408.26 1232.77,7407.48 1253.17,7432.52C1253.41,7432.04 1253.71,7431.45 1253.94,7430.99C1282.05,7374.84 1168.38,7376.16 1120.57,7376.16L879.434,7376.16C876.446,7376.16 873.2,7376.15 869.748,7376.16Z" style="fill:rgb(128,128,128);fill-opacity:0.99;fill-rule:nonzero;"/>
                                            <path id="path9125" d="M1125.22,7312.08L874.398,7312.08C871.41,7312.08 868.165,7312.07 864.713,7312.08C864.541,7312.08 864.343,7312.08 864.17,7312.08L853.924,7344.24C857.667,7344.2 861.316,7344.18 864.713,7344.17C868.165,7344.16 871.41,7344.17 874.398,7344.17L1115.53,7344.17C1124.03,7344.17 1134.66,7344.15 1146.15,7344.39L1135.96,7312.13C1132.21,7312.1 1128.61,7312.08 1125.22,7312.07L1125.22,7312.08Z" style="fill:rgb(128,128,128);fill-opacity:0.99;fill-rule:nonzero;"/>
                                            <path id="path9135" d="M922.586,6879.6L931.129,6911.64L1009.01,6911.64L1080.96,6910.6L1070.83,6878.56L922.586,6879.6Z" style="fill:rgb(128,128,128);fill-opacity:0.99;fill-rule:nonzero;"/>
                                            <path id="path9141" d="M1372.57,6732.12C1365.27,6732.28 1358.6,6733.16 1355.29,6734.27C1350.48,6735.87 1307.49,6779.74 1266.14,6822.6L1400.97,6822.6C1402.69,6783.69 1403.9,6743.69 1401.69,6739.42C1398.64,6733.53 1384.73,6731.84 1372.57,6732.12Z" style="fill:rgb(128,128,128);"/>
                                            <path id="path9143" d="M1266.61,6967.6C1306.97,7009.4 1350.62,7053.86 1355.29,7055.41C1364.13,7058.36 1396.81,7059.69 1401.69,7050.26C1403.87,7046.05 1402.69,7006.01 1401,6967.6L1266.61,6967.6Z" style="fill:rgb(128,128,128);"/>
                                            <path id="rect9157" d="M1403.16,6895.1C1403.16,6889.61 1398.71,6885.16 1393.22,6885.16L1275.37,6885.16C1269.88,6885.16 1265.43,6889.61 1265.43,6895.1C1265.43,6900.59 1269.88,6905.04 1275.37,6905.04L1393.22,6905.04C1398.71,6905.04 1403.16,6900.59 1403.16,6895.1Z" style="fill:rgb(128,128,128);"/>
                                            <path id="rect9882" d="M1129.27,7653.85C1129.27,7652.93 1128.52,7652.18 1127.6,7652.18L876.45,7652.18C875.525,7652.18 874.773,7652.93 874.773,7653.85C874.773,7654.78 875.525,7655.53 876.45,7655.53L1127.6,7655.53C1128.52,7655.53 1129.27,7654.78 1129.27,7653.85Z" style="fill:rgb(128,128,128);fill-opacity:0.99;"/>
                                        </g>
                                    </g>
                                </g>
                            </g>
                        </g>
                    </g>
                </g>
            </g>
        </g>
    </g>
</svg>
