<?xml version="1.0" encoding="UTF-8" standalone="no"?>
<!DOCTYPE svg PUBLIC "-//W3C//DTD SVG 1.1//EN" "http://www.w3.org/Graphics/SVG/1.1/DTD/svg11.dtd">
<svg width="100%" height="100%" viewBox="0 0 145 145" version="1.1" xmlns="http://www.w3.org/2000/svg" xmlns:xlink="http://www.w3.org/1999/xlink" xml:space="preserve" xmlns:serif="http://www.serif.com/" style="fill-rule:evenodd;clip-rule:evenodd;stroke-linejoin:round;stroke-miterlimit:2;">
    <g transform="matrix(1,0,0,1,-2844.5,-290.575)">
        <g transform="matrix(1,0,0,1,-37,684)">
            <g transform="matrix(0.363743,0,0,0.363743,2250.63,-220.202)">
                <g id="Green-Rocky-Planet" serif:id="Green Rocky Planet">
                    <circle id="Green-Rocky-Planet1" serif:id="Green Rocky Planet" cx="1932.8" cy="-277.8" r="188.8" style="fill:rgb(30,89,148);"/>
                    <clipPath id="_clip1">
                        <circle id="Green-Rocky-Planet2" serif:id="Green Rocky Planet" cx="1932.8" cy="-277.8" r="188.8"/>
                    </clipPath>
                    <g clip-path="url(#_clip1)">
                        <g transform="matrix(1.7845,0,0,1.7845,-1368.17,366.048)">
                            <path d="M1955.6,-360.8C1955.6,-360.8 1955.98,-369.066 1955.6,-376C1955.22,-382.934 1951,-392 1951,-392C1951,-392 1889.3,-401.471 1887,-407C1884.7,-412.529 1850.22,-422.482 1856,-437C1861.78,-451.518 1824,-466.599 1824,-466.599C1824,-466.599 1803.71,-455.465 1795,-452C1786.29,-448.535 1774.6,-436.16 1774.6,-436.16C1774.6,-436.16 1862.78,-411.419 1860,-374C1857.22,-336.581 1955.6,-360.8 1955.6,-360.8Z" style="fill:rgb(48,110,40);"/>
                            <path d="M1889.2,-408.316C1889.19,-408.314 1889.18,-408.309 1889.18,-408.302C1888.65,-407.822 1890.81,-407.317 1892.36,-406.719C1896.87,-404.983 1904.32,-403.071 1912.41,-401.218C1930.28,-397.125 1951.21,-393.396 1951.21,-393.396C1951.68,-393.325 1952.08,-393.024 1952.28,-392.596C1952.28,-392.596 1954.28,-388.047 1955.56,-382.885C1956.12,-380.616 1956.55,-378.232 1956.62,-376.057C1956.7,-373.524 1956.68,-370.82 1956.62,-368.397C1956.51,-364.142 1956.27,-360.768 1956.27,-360.768C1956.26,-360.471 1956.05,-360.219 1955.76,-360.148C1955.76,-360.148 1909.31,-347.888 1880.82,-352.398C1866.55,-354.656 1856.82,-361.211 1857.61,-374.178C1858.04,-380.904 1855.16,-387.093 1850.46,-392.818C1846.26,-397.934 1840.58,-402.633 1834.26,-406.966C1809.39,-424.014 1774.2,-434.749 1774.2,-434.749C1773.71,-434.887 1773.32,-435.274 1773.19,-435.769C1773.05,-436.264 1773.18,-436.794 1773.53,-437.167C1773.53,-437.167 1779.1,-442.825 1785.44,-447.529C1788.5,-449.794 1791.72,-451.844 1794.62,-452.948C1797.6,-454.095 1801.96,-456.09 1806.37,-458.294C1814.85,-462.537 1823.54,-467.438 1823.54,-467.438C1823.79,-467.576 1824.09,-467.594 1824.36,-467.488C1824.36,-467.488 1843.56,-460.161 1852.95,-450.661C1857.35,-446.213 1859.54,-441.239 1857.69,-436.326C1856.26,-432.511 1858.35,-429.23 1861.61,-426.244C1867.5,-420.855 1877.37,-416.607 1883.32,-413.201C1886.35,-411.462 1888.42,-409.705 1889.2,-408.316ZM1824.05,-465.538C1821.96,-464.422 1812.43,-459.334 1804.25,-455.252C1800.86,-453.56 1797.71,-452.013 1795.38,-451.052C1792.67,-449.929 1789.68,-447.901 1786.87,-445.667C1782.93,-442.536 1779.35,-438.999 1777.34,-436.929C1783.63,-435.156 1801.57,-429.756 1819.32,-421.221C1825.46,-418.274 1831.57,-414.96 1837.15,-411.264C1844,-406.73 1850.06,-401.637 1854.52,-396.118C1860.02,-389.29 1863.06,-381.778 1862.39,-373.822C1861.46,-363.271 1869.92,-358.443 1881.49,-356.242C1907.66,-351.261 1949.88,-360.225 1954.94,-361.34C1954.95,-362.431 1954.99,-365.161 1954.92,-368.403C1954.87,-370.79 1954.77,-373.454 1954.58,-375.943C1954.42,-377.969 1953.91,-380.171 1953.28,-382.263C1952.18,-385.957 1950.7,-389.297 1950.05,-390.702C1945.04,-391.372 1915.53,-395.409 1898.44,-399.664C1893.84,-400.808 1890.12,-402.014 1887.9,-403.113C1886.01,-404.045 1885,-405.166 1884.64,-406.016C1884.5,-406.358 1884.04,-406.644 1883.5,-407.053C1882.16,-408.063 1880.24,-409.18 1878.02,-410.431C1871.93,-413.874 1863.81,-418.188 1858.72,-423.199C1854.31,-427.542 1852.09,-432.42 1854.31,-437.674C1856.33,-442.483 1852.55,-447.303 1847.46,-451.65C1839,-458.883 1826.43,-464.504 1824.05,-465.538ZM1889.2,-408.316C1889.29,-408.353 1889.32,-408.077 1889.36,-407.984C1889.32,-408.092 1889.26,-408.203 1889.2,-408.316Z"/>
                        </g>
                        <g transform="matrix(1.7845,0,0,1.7845,-1368.17,366.048)">
                            <path d="M1744,-360.8C1744,-360.8 1849.06,-335.583 1835,-299C1820.94,-262.417 1800.8,-267 1800.8,-267C1800.8,-267 1777.55,-278.49 1760.6,-304C1747.42,-323.829 1744,-360.8 1744,-360.8Z" style="fill:rgb(32,78,25);"/>
                            <path d="M1744.29,-362.023C1743.9,-362.118 1743.48,-362.016 1743.18,-361.751C1742.87,-361.485 1742.71,-361.088 1742.75,-360.684C1742.75,-360.684 1743.53,-342.787 1748.21,-324.898C1750.37,-316.644 1753.43,-308.458 1757.44,-301.898C1759.56,-298.579 1761.65,-295.365 1764.07,-292.61C1766.71,-289.612 1769.61,-287.147 1772.4,-284.826C1779.76,-278.71 1786.87,-274.771 1791.99,-271.671C1797.33,-268.448 1800.55,-266.5 1800.55,-266.5C1800.59,-266.481 1800.63,-266.466 1800.68,-266.456C1800.68,-266.456 1809.39,-264.126 1820,-272.692C1825.68,-277.28 1831.89,-284.989 1837.61,-297.996C1841.1,-306.151 1839.44,-314.123 1834.06,-321.324C1831.28,-325.05 1827.38,-328.488 1822.86,-331.683C1814.35,-337.693 1803.37,-342.642 1792.4,-346.964C1768.47,-356.405 1744.29,-362.023 1744.29,-362.023ZM1745.54,-359.099C1746.35,-354.23 1748.9,-340.327 1753.74,-326.595C1756.36,-319.19 1759.62,-311.844 1763.76,-306.102C1765.26,-303.957 1766.86,-301.961 1768.39,-299.992C1769.45,-298.619 1770.52,-297.29 1771.52,-295.95C1775.84,-290.161 1779.78,-284.968 1783.78,-280.818C1786.67,-277.822 1789.3,-275.26 1791.76,-273.282C1793.03,-272.265 1794.23,-271.418 1795.32,-270.707C1798.8,-268.443 1801.05,-267.5 1800.92,-267.544C1800.92,-267.544 1809.14,-266.034 1818.18,-274.75C1823.12,-279.513 1828.19,-287.327 1832.39,-300.004C1834.77,-306.871 1831.98,-312.884 1826.96,-318.623C1822.56,-323.657 1816.5,-328.577 1809.4,-332.998C1803.57,-336.623 1797.23,-340.082 1790.74,-343.055C1771.42,-351.909 1751.56,-357.499 1745.54,-359.099Z"/>
                        </g>
                        <g transform="matrix(1.7845,0,0,1.7845,-1368.17,366.048)">
                            <path d="M1862,-255C1862,-255 1865.28,-318.653 1883,-324C1900.72,-329.347 1951,-329.25 1951,-329.25C1951,-329.25 1935.11,-296.753 1922,-283C1908.89,-269.247 1862,-255 1862,-255Z" style="fill:rgb(59,142,48);"/>
                            <path d="M1860.74,-255.065C1860.72,-254.655 1860.9,-254.261 1861.23,-254.009C1861.55,-253.756 1861.97,-253.677 1862.37,-253.796C1862.37,-253.796 1882.74,-258.846 1900.74,-266.175C1907.13,-268.774 1913.23,-271.631 1918,-274.719C1920.77,-276.509 1923.06,-278.434 1924.84,-280.289C1926.95,-283.007 1929.12,-286.215 1931.17,-289.845C1933.66,-294.231 1935.85,-299.057 1938.13,-303.801C1939.11,-305.828 1940.04,-307.823 1941.06,-309.72C1942.14,-311.739 1943.3,-313.62 1944.36,-315.414C1948.86,-323.088 1952.06,-328.732 1952.06,-328.732C1952.24,-329.097 1952.22,-329.528 1952,-329.873C1951.79,-330.218 1951.41,-330.428 1951,-330.429C1951,-330.429 1924.39,-332.12 1902.88,-330.756C1899.99,-330.573 1897.2,-330.308 1894.58,-329.935C1889.64,-329.228 1885.32,-328.182 1882.07,-327.09C1879.6,-326.242 1877.31,-324.601 1875.34,-322.143C1872.46,-318.55 1870.18,-313.23 1868.32,-307.077C1861.97,-286.108 1860.74,-255.065 1860.74,-255.065ZM1949.21,-327.964C1944.48,-327.68 1931.03,-326.809 1917.01,-325.381C1911.31,-324.8 1905.54,-324.007 1900.2,-323.376C1893.76,-322.616 1887.97,-322.037 1883.93,-320.91C1881.94,-320.392 1880.18,-318.891 1878.57,-316.773C1875.26,-312.439 1872.52,-305.903 1870.43,-298.665C1865.72,-282.418 1863.88,-262.963 1863.4,-256.862C1868.56,-258.798 1884.11,-264.818 1898.09,-271.97C1903.85,-274.917 1909.27,-278.106 1913.62,-281.186C1915.8,-282.728 1917.72,-284.199 1919.16,-285.711C1924.93,-290.545 1931.63,-297.947 1937.15,-305.674C1938.79,-307.969 1940.3,-310.282 1941.61,-312.561C1945.4,-319.203 1948.02,-325.112 1949.21,-327.964Z"/>
                        </g>
                    </g>
                    <path id="Green-Rocky-Planet3" serif:id="Green Rocky Planet" d="M1932.8,-475.247C1878.89,-473.661 1830.69,-450.627 1796.3,-414.304C1762.62,-378.74 1742.11,-330.585 1743.43,-277.8C1743.35,-225.511 1764.8,-178.391 1798.77,-143.768C1833,-108.876 1880.11,-86.528 1932.8,-85.6C1986.21,-84.653 2035.09,-105.44 2070.54,-140.062C2085.1,-154.286 2097.46,-170.838 2106.72,-189.185C2120.13,-215.761 2127.07,-246.014 2126.57,-277.8C2126.18,-303.991 2120.28,-328.745 2110.84,-351.541C2101.05,-375.167 2087.32,-396.71 2069.87,-414.873C2035.16,-451.018 1986.81,-473.951 1932.8,-475.247ZM1932.8,-457.951C1983.02,-459.156 2029.07,-439.955 2062.68,-407.676C2080,-391.039 2094.31,-371.088 2103.68,-348.57C2112.72,-326.833 2117,-302.79 2116.63,-277.8C2116.16,-247.874 2108.23,-219.884 2095.36,-194.988C2086.52,-177.891 2075.33,-162.227 2062.01,-148.587C2029.08,-114.864 1983.61,-93.301 1932.8,-92.4C1881.27,-91.492 1834.01,-111.399 1799.88,-144.881C1765.51,-178.606 1744.65,-225.887 1744.57,-277.8C1745.86,-329.245 1767.69,-375.421 1802.35,-408.245C1836.27,-440.366 1882.46,-459.432 1932.8,-457.951Z"/>
                </g>
            </g>
        </g>
    </g>
</svg>
