<?xml version="1.0" encoding="UTF-8" standalone="no"?>
<!DOCTYPE svg PUBLIC "-//W3C//DTD SVG 1.1//EN" "http://www.w3.org/Graphics/SVG/1.1/DTD/svg11.dtd">
<svg width="100%" height="100%" viewBox="0 0 2000 2000" version="1.1" xmlns="http://www.w3.org/2000/svg" xmlns:xlink="http://www.w3.org/1999/xlink" xml:space="preserve" xmlns:serif="http://www.serif.com/" style="fill-rule:evenodd;clip-rule:evenodd;stroke-miterlimit:2.63636;">
    <g transform="matrix(0.854317,0,0,0.854317,145.683,-6774.8)">
        <g id="Layer-2" serif:id="Layer 2">
            <g id="g2988">
                <g id="g2926" transform="matrix(1.21,0,0,1.21,-210,-1804.59)">
                    <path id="path1825" d="M997.119,9014.25C960.776,9019.36 927.772,9138.83 913.459,9317.08C714.94,9329.4 571.135,9382.54 570.909,9443.66C571.066,9504.05 711.441,9556.76 906.969,9569.86C912.899,9806.69 951.686,9980.99 997.119,9974.95C1040.77,9968.72 1078.55,9797.72 1086.56,9570.23C1285.07,9557.9 1428.86,9504.77 1429.09,9443.66C1429.03,9382.04 1283.01,9328.57 1082.48,9316.73C1069.34,9130.24 1035.15,9009.11 997.119,9014.25Z" style="fill:rgb(0,145,255);fill-opacity:0.98;fill-rule:nonzero;"/>
                    <path id="path1828" d="M997.695,9102.45C968.621,9106.53 942.218,9202.1 930.768,9344.71C771.952,9354.57 656.908,9397.08 656.727,9445.97C656.854,9494.28 769.154,9536.45 925.575,9546.93C930.319,9736.4 961.349,9875.83 997.695,9871C1032.61,9866.02 1062.84,9729.22 1069.24,9547.23C1228.05,9537.37 1343.09,9494.86 1343.27,9445.97C1343.22,9396.68 1226.41,9353.9 1065.99,9344.43C1055.47,9195.24 1028.12,9098.33 997.695,9102.45Z" style="fill:rgb(121,197,255);fill-opacity:0.98;fill-rule:nonzero;"/>
                    <path id="path1830" d="M998.156,9154.77C974.897,9158.04 953.774,9234.5 944.614,9348.58C817.562,9356.47 725.526,9390.48 725.382,9429.59C725.482,9468.24 815.322,9501.98 940.46,9510.36C944.255,9661.93 969.079,9773.48 998.156,9769.61C1026.09,9765.63 1050.27,9656.19 1055.39,9510.59C1182.44,9502.7 1274.47,9468.7 1274.62,9429.59C1274.58,9390.16 1181.13,9355.93 1052.79,9348.35C1044.38,9229 1022.5,9151.48 998.156,9154.77Z" style="fill:rgb(249,249,249);fill-opacity:0.98;fill-rule:nonzero;"/>
                </g>
                <g id="g2249" transform="matrix(-16,0,0,16,5213.03,-141543)">
                    <path id="path3363" d="M263.314,9433.3C246.052,9433.3 231.455,9439.76 229.844,9448.11L296.765,9448.11C295.155,9439.76 280.569,9433.3 263.314,9433.3Z" style="fill:rgb(119,48,0);fill-rule:nonzero;stroke:rgb(119,48,0);stroke-width:3.34px;"/>
                    <g id="rect3405" transform="matrix(1,0,0.550113,0.83509,0,0)">
                        <path d="M-5955.5,11271C-5955.5,11270.8 -5955.6,11270.7 -5955.73,11270.7L-5972.93,11270.7C-5973.06,11270.7 -5973.17,11270.8 -5973.17,11271L-5973.17,11310.7C-5973.17,11310.9 -5973.06,11311 -5972.93,11311L-5955.73,11311C-5955.6,11311 -5955.5,11310.9 -5955.5,11310.7L-5955.5,11271Z" style="fill:rgb(119,48,0);stroke:rgb(119,48,0);stroke-width:3.66px;"/>
                    </g>
                    <g id="rect3409" transform="matrix(-1,0,-0.550113,0.83509,0,0)">
                        <path d="M-6482.13,11271C-6482.13,11270.8 -6482.23,11270.7 -6482.36,11270.7L-6499.56,11270.7C-6499.69,11270.7 -6499.8,11270.8 -6499.8,11271L-6499.8,11310.7C-6499.8,11310.9 -6499.69,11311 -6499.56,11311L-6482.36,11311C-6482.23,11311 -6482.13,11310.9 -6482.13,11310.7L-6482.13,11271Z" style="fill:rgb(119,48,0);stroke:rgb(119,48,0);stroke-width:3.66px;"/>
                    </g>
                    <g id="g2216">
                        <g id="rect3347" transform="matrix(0.915231,-0.402929,0.402929,0.915231,0,0)">
                            <path d="M-3543.25,8653.89C-3543.25,8653.87 -3543.27,8653.85 -3543.29,8653.85L-3544.95,8653.85C-3544.98,8653.85 -3545,8653.87 -3545,8653.89L-3545,8690.67C-3545,8690.7 -3544.98,8690.72 -3544.95,8690.72L-3543.29,8690.72C-3543.27,8690.72 -3543.25,8690.7 -3543.25,8690.67L-3543.25,8653.89Z" style="fill:rgb(255,127,42);stroke:rgb(119,48,0);stroke-width:3.34px;"/>
                        </g>
                        <circle id="circle3349" cx="242.835" cy="9347.18" r="3.065" style="fill:rgb(255,127,42);stroke:rgb(119,48,0);stroke-width:3.34px;"/>
                        <g id="rect3353" transform="matrix(-0.915231,-0.402929,-0.402929,0.915231,0,0)">
                            <path d="M-4025.24,8441.7C-4025.24,8441.67 -4025.26,8441.65 -4025.28,8441.65L-4026.94,8441.65C-4026.97,8441.65 -4026.99,8441.67 -4026.99,8441.7L-4026.99,8478.48C-4026.99,8478.5 -4026.97,8478.52 -4026.94,8478.52L-4025.28,8478.52C-4025.26,8478.52 -4025.24,8478.5 -4025.24,8478.48L-4025.24,8441.7Z" style="fill:rgb(255,127,42);stroke:rgb(119,48,0);stroke-width:3.34px;"/>
                        </g>
                        <g id="circle3355" transform="matrix(-1,0,0,1,0,0)">
                            <circle cx="-283.793" cy="9347.18" r="3.065" style="fill:rgb(255,127,42);stroke:rgb(119,48,0);stroke-width:3.34px;"/>
                        </g>
                        <path id="path3359" d="M263.236,9441.19L241.698,9429.42C239.686,9429.41 235.47,9426.73 238.162,9424.35L252.609,9411.59C253.878,9410.47 254.229,9409.69 256.241,9409.7L262.566,9409.75C262.744,9409.75 262.917,9409.76 263.087,9409.78C263.304,9409.75 263.527,9409.73 263.756,9409.73L269.315,9409.68C271.327,9409.67 272.415,9410.48 273.713,9411.57L288.926,9424.34C291.678,9426.65 286.636,9429.4 284.624,9429.4L263.236,9441.19Z" style="fill:rgb(255,221,85);fill-rule:nonzero;stroke:rgb(119,48,0);stroke-width:3.34px;"/>
                        <g id="rect3361" transform="matrix(-1,0,0,1,0,0)">
                            <path d="M-258.313,9392.89C-258.313,9392.81 -258.372,9392.75 -258.446,9392.75L-268.183,9392.75C-268.256,9392.75 -268.315,9392.81 -268.315,9392.89L-268.315,9412.49C-268.315,9412.56 -268.256,9412.62 -268.183,9412.62L-258.446,9412.62C-258.372,9412.62 -258.313,9412.56 -258.313,9412.49L-258.313,9392.89Z" style="fill:rgb(255,127,42);stroke:rgb(119,48,0);stroke-width:3.34px;"/>
                        </g>
                        <path id="rect3365" d="M249.014,9385.51C249.014,9385.44 248.953,9385.38 248.877,9385.38L238.774,9385.38C238.698,9385.38 238.636,9385.44 238.636,9385.51L238.636,9405.67C238.636,9405.75 238.698,9405.81 238.774,9405.81L248.877,9405.81C248.953,9405.81 249.014,9405.75 249.014,9405.67L249.014,9385.51Z" style="fill:rgb(119,48,0);stroke:rgb(119,48,0);stroke-width:3.34px;"/>
                        <path id="rect3367" d="M249.018,9385.51C249.018,9385.43 248.958,9385.37 248.885,9385.37L239.148,9385.37C239.075,9385.37 239.015,9385.43 239.015,9385.51L239.015,9405.11C239.015,9405.18 239.075,9405.24 239.148,9405.24L248.885,9405.24C248.958,9405.24 249.018,9405.18 249.018,9405.11L249.018,9385.51Z" style="fill:rgb(255,127,42);stroke:rgb(119,48,0);stroke-width:3.34px;"/>
                        <g id="rect3371" transform="matrix(-1,0,0,1,0,0)">
                            <path d="M-277.56,9384.98C-277.56,9384.9 -277.622,9384.84 -277.698,9384.84L-287.801,9384.84C-287.877,9384.84 -287.939,9384.9 -287.939,9384.98L-287.939,9405.14C-287.939,9405.21 -287.877,9405.28 -287.801,9405.28L-277.698,9405.28C-277.622,9405.28 -277.56,9405.21 -277.56,9405.14L-277.56,9384.98Z" style="fill:rgb(119,48,0);stroke:rgb(119,48,0);stroke-width:3.34px;"/>
                        </g>
                        <g id="rect3373" transform="matrix(-1,0,0,1,0,0)">
                            <path d="M-277.557,9384.97C-277.557,9384.9 -277.617,9384.84 -277.69,9384.84L-287.427,9384.84C-287.5,9384.84 -287.56,9384.9 -287.56,9384.97L-287.56,9404.57C-287.56,9404.65 -287.5,9404.71 -287.427,9404.71L-277.69,9404.71C-277.617,9404.71 -277.557,9404.65 -277.557,9404.57L-277.557,9384.97Z" style="fill:rgb(255,127,42);stroke:rgb(119,48,0);stroke-width:3.34px;"/>
                        </g>
                        <path id="path3377" d="M262.998,9366.31L241.301,9366.36C239.238,9366.37 236.841,9367.97 237.674,9371.56L245.418,9404.96C245.811,9406.65 247.08,9408.1 249.144,9408.1L262.704,9408.05C262.886,9408.05 263.064,9408.04 263.239,9408.02C263.46,9408.05 263.689,9408.07 263.924,9408.07L277.485,9408.12C279.548,9408.13 280.817,9406.68 281.21,9404.98L288.954,9371.58C289.787,9367.99 287.391,9366.39 285.327,9366.38L263.63,9366.33L263.471,9366.33C263.316,9366.32 263.159,9366.31 262.998,9366.31L262.998,9366.31Z" style="fill:rgb(119,48,0);fill-rule:nonzero;stroke:rgb(119,48,0);stroke-width:3.34px;"/>
                        <path id="path3379" d="M262.98,9366.31L241.825,9366.36C239.813,9366.37 237.476,9367.93 238.288,9371.43L245.839,9403.97C246.222,9405.62 247.459,9407.03 249.471,9407.02L262.693,9406.98C262.87,9406.98 263.044,9406.97 263.214,9406.94C263.43,9406.98 263.653,9407 263.882,9407L277.104,9407.05C279.116,9407.06 280.353,9405.64 280.736,9403.99L288.287,9371.45C289.099,9367.95 286.762,9366.39 284.75,9366.38L263.595,9366.33L263.441,9366.33C263.29,9366.32 263.136,9366.31 262.98,9366.31L262.98,9366.31Z" style="fill:rgb(255,221,85);fill-rule:nonzero;stroke:rgb(119,48,0);stroke-width:3.34px;"/>
                        <path id="path3381" d="M248.065,9378.77L258.868,9380.93C259.24,9381 259.545,9381.15 259.52,9381.46L259.283,9384.36C259.259,9384.66 258.927,9384.96 258.542,9384.93C255.486,9384.71 254.14,9383.98 247.265,9384.92C246.883,9384.97 246.571,9384.69 246.614,9384.39L247.324,9379.33C247.366,9379.03 247.693,9378.69 248.065,9378.76L248.065,9378.77Z" style="fill:rgb(255,0,0);fill-rule:nonzero;stroke:rgb(119,48,0);stroke-width:2.09px;"/>
                        <path id="path3383" d="M247.948,9372.44L261.145,9379.01C261.604,9379.24 261.941,9379.55 261.847,9379.88L260.789,9383.57C260.695,9383.9 260.212,9384.04 259.723,9383.89L245.577,9379.51C245.087,9379.36 244.764,9378.97 244.875,9378.65L246.882,9372.76C246.992,9372.44 247.489,9372.22 247.948,9372.44Z" style="fill:rgb(119,48,0);fill-rule:nonzero;"/>
                        <path id="path3385" d="M249.149,9374.28C249.149,9374.28 259.79,9379.59 259.79,9379.59C260.157,9379.78 260.436,9379.99 260.341,9380.21L259.433,9382.28C259.338,9382.5 258.939,9382.57 258.539,9382.45L246.979,9378.87C246.579,9378.75 246.326,9378.47 246.429,9378.26L248.255,9374.45C248.358,9374.24 248.783,9374.1 249.149,9374.28Z" style="fill:rgb(255,127,42);fill-rule:nonzero;"/>
                        <path id="path3387" d="M251.065,9390.69C250.703,9390.68 250.374,9390.86 250.369,9391.1L250.099,9404.5C250.092,9404.83 250.316,9405.47 250.836,9405.34L263.166,9402.36L275.581,9405.36C276.101,9405.49 276.325,9404.85 276.318,9404.52L276.048,9391.12C276.041,9390.78 275.408,9390.58 274.929,9390.81L263.23,9396.36L251.489,9390.79C251.354,9390.72 251.207,9390.69 251.065,9390.69L251.065,9390.69Z" style="fill:rgb(51,51,51);fill-rule:nonzero;"/>
                        <path id="path3389" d="M253.458,9394.38C253.195,9394.39 252.965,9394.48 252.961,9394.6L252.754,9401.68C252.748,9401.87 252.921,9402.22 253.319,9402.15L263.173,9400.43L273.098,9402.16C273.497,9402.23 273.668,9401.88 273.663,9401.69L273.456,9394.61C273.45,9394.43 272.965,9394.32 272.598,9394.44L263.227,9397.63L253.819,9394.43C253.704,9394.39 253.578,9394.38 253.458,9394.39L253.458,9394.38Z" style="fill:rgb(179,179,179);fill-rule:nonzero;"/>
                        <path id="path3391" d="M255.225,9392.74C255.493,9392.74 255.781,9393.03 255.78,9393.19L255.744,9402.19C255.744,9402.35 255.529,9402.49 255.261,9402.49C254.993,9402.49 254.777,9402.35 254.777,9402.19L254.777,9392.98C254.777,9392.82 254.957,9392.74 255.225,9392.74L255.225,9392.74Z" style="fill:rgb(51,51,51);fill-rule:nonzero;"/>
                        <path id="path3393" d="M260.511,9395.22C260.78,9395.22 261.068,9395.41 261.067,9395.52L261.031,9401.52C261.03,9401.63 260.815,9401.72 260.547,9401.72C260.279,9401.72 260.063,9401.63 260.063,9401.52L260.063,9395.38C260.063,9395.27 260.243,9395.22 260.512,9395.22L260.511,9395.22Z" style="fill:rgb(51,51,51);fill-rule:nonzero;"/>
                        <path id="path3395" d="M278.352,9378.79L267.549,9380.95C267.177,9381.02 266.873,9381.17 266.897,9381.48L267.134,9384.38C267.159,9384.68 267.49,9384.98 267.875,9384.95C270.931,9384.74 272.277,9384 279.152,9384.94C279.534,9384.99 279.846,9384.72 279.804,9384.41L279.093,9379.35C279.051,9379.05 278.724,9378.71 278.352,9378.78L278.352,9378.79Z" style="fill:rgb(255,0,0);fill-rule:nonzero;stroke:rgb(119,48,0);stroke-width:2.09px;"/>
                        <path id="path3397" d="M278.469,9372.47L265.273,9379.04C264.813,9379.26 264.476,9379.57 264.571,9379.9L265.628,9383.59C265.723,9383.92 266.205,9384.06 266.695,9383.91L280.84,9379.53C281.33,9379.38 281.653,9378.99 281.543,9378.67L279.535,9372.78C279.425,9372.46 278.928,9372.24 278.469,9372.47Z" style="fill:rgb(119,48,0);fill-rule:nonzero;"/>
                        <path id="path3399" d="M277.269,9374.3L266.628,9379.61C266.262,9379.79 265.982,9380 266.077,9380.22L266.985,9382.29C267.08,9382.51 267.479,9382.58 267.879,9382.46L279.439,9378.88C279.839,9378.76 280.093,9378.48 279.99,9378.27L278.163,9374.47C278.06,9374.25 277.636,9374.11 277.269,9374.3Z" style="fill:rgb(255,127,42);fill-rule:nonzero;"/>
                        <path id="path3401" d="M271.193,9392.76C270.925,9392.76 270.636,9393.05 270.637,9393.21L270.673,9402.21C270.674,9402.37 270.889,9402.51 271.157,9402.51C271.425,9402.51 271.641,9402.37 271.641,9402.21L271.641,9393C271.641,9392.84 271.461,9392.76 271.193,9392.76L271.193,9392.76Z" style="fill:rgb(51,51,51);fill-rule:nonzero;"/>
                        <path id="path3403" d="M265.906,9395.41C265.638,9395.41 265.35,9395.59 265.35,9395.7L265.386,9401.55C265.387,9401.66 265.602,9401.74 265.87,9401.74C266.138,9401.74 266.354,9401.66 266.354,9401.55L266.354,9395.57C266.354,9395.46 266.174,9395.41 265.906,9395.41L265.906,9395.41Z" style="fill:rgb(51,51,51);fill-rule:nonzero;"/>
                        <g id="rect3407" transform="matrix(1,0,0.550113,0.83509,0,0)">
                            <path d="M-5955.49,11271C-5955.49,11270.8 -5955.59,11270.7 -5955.72,11270.7L-5972.3,11270.7C-5972.42,11270.7 -5972.52,11270.8 -5972.52,11271L-5972.52,11309.6C-5972.52,11309.8 -5972.42,11309.9 -5972.3,11309.9L-5955.72,11309.9C-5955.59,11309.9 -5955.49,11309.8 -5955.49,11309.6L-5955.49,11271Z" style="fill:rgb(255,127,42);stroke:rgb(119,48,0);stroke-width:3.66px;"/>
                        </g>
                        <g id="rect3411" transform="matrix(-1,0,-0.550113,0.83509,0,0)">
                            <path d="M-6482.12,11271C-6482.12,11270.8 -6482.22,11270.7 -6482.35,11270.7L-6498.93,11270.7C-6499.05,11270.7 -6499.15,11270.8 -6499.15,11271L-6499.15,11309.6C-6499.15,11309.8 -6499.05,11309.9 -6498.93,11309.9L-6482.35,11309.9C-6482.22,11309.9 -6482.12,11309.8 -6482.12,11309.6L-6482.12,11271Z" style="fill:rgb(255,127,42);stroke:rgb(119,48,0);stroke-width:3.66px;"/>
                        </g>
                    </g>
                    <path id="path3413" d="M263.287,9433.29C246.901,9433.29 233.045,9439.02 231.516,9446.43L295.041,9446.43C293.512,9439.03 279.667,9433.3 263.287,9433.29Z" style="fill:rgb(255,127,42);fill-rule:nonzero;stroke:rgb(119,48,0);stroke-width:3.34px;"/>
                </g>
            </g>
        </g>
    </g>
</svg>
