<?xml version="1.0" encoding="UTF-8" standalone="no"?>
<!DOCTYPE svg PUBLIC "-//W3C//DTD SVG 1.1//EN" "http://www.w3.org/Graphics/SVG/1.1/DTD/svg11.dtd">
<svg width="100%" height="100%" viewBox="0 0 300 300" version="1.1" xmlns="http://www.w3.org/2000/svg" xmlns:xlink="http://www.w3.org/1999/xlink" xml:space="preserve" xmlns:serif="http://www.serif.com/" style="fill-rule:evenodd;clip-rule:evenodd;stroke-linecap:round;stroke-linejoin:round;stroke-miterlimit:1.5;">
    <g transform="matrix(1,0,0,1,-8008.59,-458)">
        <g id="Gun-Target" serif:id="Gun Target" transform="matrix(0.507614,0,0,0.552486,5845.14,204.961)">
            <rect x="4262" y="458" width="591" height="543" style="fill:none;"/>
            <clipPath id="_clip1">
                <rect x="4262" y="458" width="591" height="543"/>
            </clipPath>
            <g clip-path="url(#_clip1)">
                <g transform="matrix(2.15469,0,0,1.81,3085.91,-396.32)">
                    <g id="Active-Squares" serif:id="Active Squares">
                        <g id="Target-Square" serif:id="Target Square" transform="matrix(0.914286,0,0,1,-2259.2,-532)">
                            <g id="Active-Square" serif:id="Active Square" transform="matrix(0.705882,0,0,0.705882,1604,90.5882)">
                                <rect x="2329" y="1464" width="85" height="85" style="fill:rgb(235,211,124);fill-opacity:0;stroke:black;stroke-width:1.77px;"/>
                            </g>
                            <g id="Active-Square1" serif:id="Active Square" transform="matrix(0.705882,0,0,0.705882,1604,90.5882)">
                                <rect x="2329" y="1464" width="85" height="85" style="fill:rgb(235,211,124);fill-opacity:0;stroke:white;stroke-opacity:0.44;stroke-width:2.95px;"/>
                            </g>
                            <g transform="matrix(1,0,0,1,635.303,1100.3)">
                                <circle cx="2642.7" cy="53.697" r="27.697" style="fill:rgb(235,211,124);fill-opacity:0;stroke:rgb(172,25,25);stroke-width:3.33px;"/>
                            </g>
                        </g>
                        <g id="Target-Square1" serif:id="Target Square" transform="matrix(0.914286,0,0,1,-2314.06,-592)">
                            <g id="Active-Square2" serif:id="Active Square" transform="matrix(0.705882,0,0,0.705882,1604,90.5882)">
                                <rect x="2329" y="1464" width="85" height="85" style="fill:rgb(235,211,124);fill-opacity:0;stroke:black;stroke-width:1.77px;"/>
                            </g>
                            <g id="Active-Square3" serif:id="Active Square" transform="matrix(0.705882,0,0,0.705882,1604,90.5882)">
                                <rect x="2329" y="1464" width="85" height="85" style="fill:rgb(235,211,124);fill-opacity:0;stroke:white;stroke-opacity:0.44;stroke-width:2.95px;"/>
                            </g>
                            <g transform="matrix(1,0,0,1,635.303,1100.3)">
                                <circle cx="2642.7" cy="53.697" r="27.697" style="fill:rgb(235,211,124);fill-opacity:0;stroke:rgb(172,25,25);stroke-width:3.33px;"/>
                            </g>
                        </g>
                        <g id="Target-Square2" serif:id="Target Square" transform="matrix(0.914286,0,0,1,-2314.06,-472)">
                            <g id="Active-Square4" serif:id="Active Square" transform="matrix(0.705882,0,0,0.705882,1604,90.5882)">
                                <rect x="2329" y="1464" width="85" height="85" style="fill:rgb(235,211,124);fill-opacity:0;stroke:black;stroke-width:1.77px;"/>
                            </g>
                            <g id="Active-Square5" serif:id="Active Square" transform="matrix(0.705882,0,0,0.705882,1604,90.5882)">
                                <rect x="2329" y="1464" width="85" height="85" style="fill:rgb(235,211,124);fill-opacity:0;stroke:white;stroke-opacity:0.44;stroke-width:2.95px;"/>
                            </g>
                            <g transform="matrix(1,0,0,1,635.303,1100.3)">
                                <circle cx="2642.7" cy="53.697" r="27.697" style="fill:rgb(235,211,124);fill-opacity:0;stroke:rgb(172,25,25);stroke-width:3.33px;"/>
                            </g>
                        </g>
                        <g id="Target-Square3" serif:id="Target Square" transform="matrix(0.914286,0,0,1,-2368.91,-532)">
                            <g id="Active-Square6" serif:id="Active Square" transform="matrix(0.705882,0,0,0.705882,1604,90.5882)">
                                <rect x="2329" y="1464" width="85" height="85" style="fill:rgb(235,211,124);fill-opacity:0;stroke:black;stroke-width:1.77px;"/>
                            </g>
                            <g id="Active-Square7" serif:id="Active Square" transform="matrix(0.705882,0,0,0.705882,1604,90.5882)">
                                <rect x="2329" y="1464" width="85" height="85" style="fill:rgb(235,211,124);fill-opacity:0;stroke:white;stroke-opacity:0.44;stroke-width:2.95px;"/>
                            </g>
                            <g transform="matrix(1,0,0,1,635.303,1100.3)">
                                <circle cx="2642.7" cy="53.697" r="27.697" style="fill:rgb(235,211,124);fill-opacity:0;stroke:rgb(172,25,25);stroke-width:3.33px;"/>
                            </g>
                        </g>
                    </g>
                    <g id="Outer-Squares" serif:id="Outer Squares" transform="matrix(1,0,0,1,-32,120)">
                        <g id="Outer-Square" serif:id="Outer Square" transform="matrix(0.914286,0,0,1,-2253.71,-485)">
                            <g id="Outer-Square1" serif:id="Outer Square" transform="matrix(0.705882,0,0,0.705882,1453,-16.4118)">
                                <rect x="2329" y="1464" width="85" height="85" style="fill:none;stroke:black;stroke-width:1.77px;"/>
                            </g>
                            <g id="Outer-Square2" serif:id="Outer Square" transform="matrix(0.705882,0,0,0.705882,1453,-16.4118)">
                                <rect x="2329" y="1464" width="85" height="85" style="fill:white;fill-opacity:0.7;stroke:white;stroke-opacity:0.5;stroke-width:2.95px;"/>
                            </g>
                        </g>
                        <g id="Outer-Square3" serif:id="Outer Square" transform="matrix(0.914286,0,0,1,-2253.71,-425)">
                            <g id="Outer-Square4" serif:id="Outer Square" transform="matrix(0.705882,0,0,0.705882,1453,-16.4118)">
                                <rect x="2329" y="1464" width="85" height="85" style="fill:none;stroke:black;stroke-width:1.77px;"/>
                            </g>
                            <g id="Outer-Square5" serif:id="Outer Square" transform="matrix(0.705882,0,0,0.705882,1453,-16.4118)">
                                <rect x="2329" y="1464" width="85" height="85" style="fill:white;fill-opacity:0.7;stroke:white;stroke-opacity:0.5;stroke-width:2.95px;"/>
                            </g>
                        </g>
                        <g id="Outer-Square6" serif:id="Outer Square" transform="matrix(0.914286,0,0,1,-2253.71,-605)">
                            <g id="Outer-Square7" serif:id="Outer Square" transform="matrix(0.705882,0,0,0.705882,1453,-16.4118)">
                                <rect x="2329" y="1464" width="85" height="85" style="fill:none;stroke:black;stroke-width:1.77px;"/>
                            </g>
                            <g id="Outer-Square8" serif:id="Outer Square" transform="matrix(0.705882,0,0,0.705882,1453,-16.4118)">
                                <rect x="2329" y="1464" width="85" height="85" style="fill:white;fill-opacity:0.7;stroke:white;stroke-opacity:0.5;stroke-width:2.95px;"/>
                            </g>
                        </g>
                        <g id="Outer-Square9" serif:id="Outer Square" transform="matrix(0.914286,0,0,1,-2253.71,-665)">
                            <g id="Outer-Square10" serif:id="Outer Square" transform="matrix(0.705882,0,0,0.705882,1453,-16.4118)">
                                <rect x="2329" y="1464" width="85" height="85" style="fill:none;stroke:black;stroke-width:1.77px;"/>
                            </g>
                            <g id="Outer-Square11" serif:id="Outer Square" transform="matrix(0.705882,0,0,0.705882,1453,-16.4118)">
                                <rect x="2329" y="1464" width="85" height="85" style="fill:white;fill-opacity:0.7;stroke:white;stroke-opacity:0.5;stroke-width:2.95px;"/>
                            </g>
                        </g>
                        <g id="Outer-Square12" serif:id="Outer Square" transform="matrix(0.914286,0,0,1,-2253.71,-545)">
                            <g id="Outer-Square13" serif:id="Outer Square" transform="matrix(0.705882,0,0,0.705882,1453,-16.4118)">
                                <rect x="2329" y="1464" width="85" height="85" style="fill:none;stroke:black;stroke-width:1.77px;"/>
                            </g>
                            <g id="Outer-Square14" serif:id="Outer Square" transform="matrix(0.705882,0,0,0.705882,1453,-16.4118)">
                                <rect x="2329" y="1464" width="85" height="85" style="fill:white;fill-opacity:0.7;stroke:white;stroke-opacity:0.5;stroke-width:2.95px;"/>
                            </g>
                        </g>
                        <g id="Outer-Square15" serif:id="Outer Square" transform="matrix(0.914286,0,0,1,-2034.29,-665)">
                            <g id="Outer-Square16" serif:id="Outer Square" transform="matrix(0.705882,0,0,0.705882,1453,-16.4118)">
                                <rect x="2329" y="1464" width="85" height="85" style="fill:none;stroke:black;stroke-width:1.77px;"/>
                            </g>
                            <g id="Outer-Square17" serif:id="Outer Square" transform="matrix(0.705882,0,0,0.705882,1453,-16.4118)">
                                <rect x="2329" y="1464" width="85" height="85" style="fill:white;fill-opacity:0.7;stroke:white;stroke-opacity:0.5;stroke-width:2.95px;"/>
                            </g>
                        </g>
                        <g id="Outer-Square18" serif:id="Outer Square" transform="matrix(0.914286,0,0,1,-2034.29,-605)">
                            <g id="Outer-Square19" serif:id="Outer Square" transform="matrix(0.705882,0,0,0.705882,1453,-16.4118)">
                                <rect x="2329" y="1464" width="85" height="85" style="fill:none;stroke:black;stroke-width:1.77px;"/>
                            </g>
                            <g id="Outer-Square20" serif:id="Outer Square" transform="matrix(0.705882,0,0,0.705882,1453,-16.4118)">
                                <rect x="2329" y="1464" width="85" height="85" style="fill:white;fill-opacity:0.7;stroke:white;stroke-opacity:0.5;stroke-width:2.95px;"/>
                            </g>
                        </g>
                        <g id="Outer-Square21" serif:id="Outer Square" transform="matrix(0.914286,0,0,1,-2089.14,-425)">
                            <g id="Outer-Square22" serif:id="Outer Square" transform="matrix(0.705882,0,0,0.705882,1453,-16.4118)">
                                <rect x="2329" y="1464" width="85" height="85" style="fill:none;stroke:black;stroke-width:1.77px;"/>
                            </g>
                            <g id="Outer-Square23" serif:id="Outer Square" transform="matrix(0.705882,0,0,0.705882,1453,-16.4118)">
                                <rect x="2329" y="1464" width="85" height="85" style="fill:white;fill-opacity:0.7;stroke:white;stroke-opacity:0.5;stroke-width:2.95px;"/>
                            </g>
                        </g>
                        <g id="Outer-Square24" serif:id="Outer Square" transform="matrix(0.914286,0,0,1,-2034.29,-485)">
                            <g id="Outer-Square25" serif:id="Outer Square" transform="matrix(0.705882,0,0,0.705882,1453,-16.4118)">
                                <rect x="2329" y="1464" width="85" height="85" style="fill:none;stroke:black;stroke-width:1.77px;"/>
                            </g>
                            <g id="Outer-Square26" serif:id="Outer Square" transform="matrix(0.705882,0,0,0.705882,1453,-16.4118)">
                                <rect x="2329" y="1464" width="85" height="85" style="fill:white;fill-opacity:0.7;stroke:white;stroke-opacity:0.5;stroke-width:2.95px;"/>
                            </g>
                        </g>
                        <g id="Outer-Square27" serif:id="Outer Square" transform="matrix(0.914286,0,0,1,-2034.29,-545)">
                            <g id="Outer-Square28" serif:id="Outer Square" transform="matrix(0.705882,0,0,0.705882,1453,-16.4118)">
                                <rect x="2329" y="1464" width="85" height="85" style="fill:none;stroke:black;stroke-width:1.77px;"/>
                            </g>
                            <g id="Outer-Square29" serif:id="Outer Square" transform="matrix(0.705882,0,0,0.705882,1453,-16.4118)">
                                <rect x="2329" y="1464" width="85" height="85" style="fill:white;fill-opacity:0.7;stroke:white;stroke-opacity:0.5;stroke-width:2.95px;"/>
                            </g>
                        </g>
                        <g id="Outer-Square30" serif:id="Outer Square" transform="matrix(0.914286,0,0,1,-2034.29,-425)">
                            <g id="Outer-Square31" serif:id="Outer Square" transform="matrix(0.705882,0,0,0.705882,1453,-16.4118)">
                                <rect x="2329" y="1464" width="85" height="85" style="fill:none;stroke:black;stroke-width:1.77px;"/>
                            </g>
                            <g id="Outer-Square32" serif:id="Outer Square" transform="matrix(0.705882,0,0,0.705882,1453,-16.4118)">
                                <rect x="2329" y="1464" width="85" height="85" style="fill:white;fill-opacity:0.7;stroke:white;stroke-opacity:0.5;stroke-width:2.95px;"/>
                            </g>
                        </g>
                        <g id="Outer-Square33" serif:id="Outer Square" transform="matrix(0.914286,0,0,1,-2144,-665)">
                            <g id="Outer-Square34" serif:id="Outer Square" transform="matrix(0.705882,0,0,0.705882,1453,-16.4118)">
                                <rect x="2329" y="1464" width="85" height="85" style="fill:none;stroke:black;stroke-width:1.77px;"/>
                            </g>
                            <g id="Outer-Square35" serif:id="Outer Square" transform="matrix(0.705882,0,0,0.705882,1453,-16.4118)">
                                <rect x="2329" y="1464" width="85" height="85" style="fill:white;fill-opacity:0.7;stroke:white;stroke-opacity:0.5;stroke-width:2.95px;"/>
                            </g>
                        </g>
                        <g id="Outer-Square36" serif:id="Outer Square" transform="matrix(0.914286,0,0,1,-2089.14,-665)">
                            <g id="Outer-Square37" serif:id="Outer Square" transform="matrix(0.705882,0,0,0.705882,1453,-16.4118)">
                                <rect x="2329" y="1464" width="85" height="85" style="fill:none;stroke:black;stroke-width:1.77px;"/>
                            </g>
                            <g id="Outer-Square38" serif:id="Outer Square" transform="matrix(0.705882,0,0,0.705882,1453,-16.4118)">
                                <rect x="2329" y="1464" width="85" height="85" style="fill:white;fill-opacity:0.7;stroke:white;stroke-opacity:0.5;stroke-width:2.95px;"/>
                            </g>
                        </g>
                        <g id="Outer-Square39" serif:id="Outer Square" transform="matrix(0.914286,0,0,1,-2198.86,-665)">
                            <g id="Outer-Square40" serif:id="Outer Square" transform="matrix(0.705882,0,0,0.705882,1453,-16.4118)">
                                <rect x="2329" y="1464" width="85" height="85" style="fill:none;stroke:black;stroke-width:1.77px;"/>
                            </g>
                            <g id="Outer-Square41" serif:id="Outer Square" transform="matrix(0.705882,0,0,0.705882,1453,-16.4118)">
                                <rect x="2329" y="1464" width="85" height="85" style="fill:white;fill-opacity:0.7;stroke:white;stroke-opacity:0.5;stroke-width:2.95px;"/>
                            </g>
                        </g>
                        <g id="Outer-Square42" serif:id="Outer Square" transform="matrix(0.914286,0,0,1,-2144,-425)">
                            <g id="Outer-Square43" serif:id="Outer Square" transform="matrix(0.705882,0,0,0.705882,1453,-16.4118)">
                                <rect x="2329" y="1464" width="85" height="85" style="fill:none;stroke:black;stroke-width:1.77px;"/>
                            </g>
                            <g id="Outer-Square44" serif:id="Outer Square" transform="matrix(0.705882,0,0,0.705882,1453,-16.4118)">
                                <rect x="2329" y="1464" width="85" height="85" style="fill:white;fill-opacity:0.7;stroke:white;stroke-opacity:0.5;stroke-width:2.95px;"/>
                            </g>
                        </g>
                        <g id="Outer-Square45" serif:id="Outer Square" transform="matrix(0.914286,0,0,1,-2198.86,-425)">
                            <g id="Outer-Square46" serif:id="Outer Square" transform="matrix(0.705882,0,0,0.705882,1453,-16.4118)">
                                <rect x="2329" y="1464" width="85" height="85" style="fill:none;stroke:black;stroke-width:1.77px;"/>
                            </g>
                            <g id="Outer-Square47" serif:id="Outer Square" transform="matrix(0.705882,0,0,0.705882,1453,-16.4118)">
                                <rect x="2329" y="1464" width="85" height="85" style="fill:white;fill-opacity:0.7;stroke:white;stroke-opacity:0.5;stroke-width:2.95px;"/>
                            </g>
                        </g>
                        <g id="Outer-Square48" serif:id="Outer Square" transform="matrix(0.914286,0,0,1,-2198.86,-485)">
                            <g id="Outer-Square49" serif:id="Outer Square" transform="matrix(0.705882,0,0,0.705882,1453,-16.4118)">
                                <rect x="2329" y="1464" width="85" height="85" style="fill:none;stroke:black;stroke-width:1.77px;"/>
                            </g>
                            <g id="Outer-Square50" serif:id="Outer Square" transform="matrix(0.705882,0,0,0.705882,1453,-16.4118)">
                                <rect x="2329" y="1464" width="85" height="85" style="fill:white;fill-opacity:0.7;stroke:white;stroke-opacity:0.5;stroke-width:2.95px;"/>
                            </g>
                        </g>
                        <g id="Outer-Square51" serif:id="Outer Square" transform="matrix(0.914286,0,0,1,-2198.86,-605)">
                            <g id="Outer-Square52" serif:id="Outer Square" transform="matrix(0.705882,0,0,0.705882,1453,-16.4118)">
                                <rect x="2329" y="1464" width="85" height="85" style="fill:none;stroke:black;stroke-width:1.77px;"/>
                            </g>
                            <g id="Outer-Square53" serif:id="Outer Square" transform="matrix(0.705882,0,0,0.705882,1453,-16.4118)">
                                <rect x="2329" y="1464" width="85" height="85" style="fill:white;fill-opacity:0.7;stroke:white;stroke-opacity:0.5;stroke-width:2.95px;"/>
                            </g>
                        </g>
                        <g id="Outer-Square54" serif:id="Outer Square" transform="matrix(0.914286,0,0,1,-2089.14,-485)">
                            <g id="Outer-Square55" serif:id="Outer Square" transform="matrix(0.705882,0,0,0.705882,1453,-16.4118)">
                                <rect x="2329" y="1464" width="85" height="85" style="fill:none;stroke:black;stroke-width:1.77px;"/>
                            </g>
                            <g id="Outer-Square56" serif:id="Outer Square" transform="matrix(0.705882,0,0,0.705882,1453,-16.4118)">
                                <rect x="2329" y="1464" width="85" height="85" style="fill:white;fill-opacity:0.7;stroke:white;stroke-opacity:0.5;stroke-width:2.95px;"/>
                            </g>
                        </g>
                        <g id="Outer-Square57" serif:id="Outer Square" transform="matrix(0.914286,0,0,1,-2089.14,-605)">
                            <g id="Outer-Square58" serif:id="Outer Square" transform="matrix(0.705882,0,0,0.705882,1453,-16.4118)">
                                <rect x="2329" y="1464" width="85" height="85" style="fill:none;stroke:black;stroke-width:1.77px;"/>
                            </g>
                            <g id="Outer-Square59" serif:id="Outer Square" transform="matrix(0.705882,0,0,0.705882,1453,-16.4118)">
                                <rect x="2329" y="1464" width="85" height="85" style="fill:white;fill-opacity:0.7;stroke:white;stroke-opacity:0.5;stroke-width:2.95px;"/>
                            </g>
                        </g>
                    </g>
                    <g id="Centre-Square-Damage" serif:id="Centre Square Damage" transform="matrix(0.914286,0,0,1,-2163.66,-562)">
                        <g id="Active-Square8" serif:id="Active Square" transform="matrix(0.705882,0,0,0.705882,1439.5,120.588)">
                            <rect x="2329" y="1464" width="85" height="85" style="fill:rgb(235,211,124);fill-opacity:0;stroke:black;stroke-width:1.77px;"/>
                        </g>
                        <g id="Active-Square9" serif:id="Active Square" transform="matrix(0.705882,0,0,0.705882,1439.5,120.588)">
                            <rect x="2329" y="1464" width="85" height="85" style="fill:rgb(235,211,124);fill-opacity:0;stroke:white;stroke-opacity:0.44;stroke-width:2.95px;"/>
                        </g>
                        <g transform="matrix(1,0,0,1,470.803,1130.3)">
                            <circle cx="2642.7" cy="53.697" r="27.697" style="fill:rgb(235,211,124);fill-opacity:0;stroke:rgb(172,25,25);stroke-width:3.33px;"/>
                        </g>
                    </g>
                    <g transform="matrix(1.69648e-17,0.30303,-0.421683,2.82413e-17,1082.73,36.5455)">
                        <g transform="matrix(2.02067e-16,-2.16818,3.3,1.32763e-16,1437,1273.23)">
                            <path d="M155.625,198.75L150,210L144.375,198.75C147.188,201.563 152.812,201.563 155.625,198.75Z" style="fill:rgb(221,31,38);"/>
                            <path d="M150,150L150,201" style="fill:none;stroke:rgb(221,31,38);stroke-width:3.75px;"/>
                        </g>
                    </g>
                    <g transform="matrix(0.277056,0,-3.08149e-33,0.461216,147.699,184.767)">
                        <g transform="matrix(3.3,-0,2.41151e-32,2.16818,1437,622.773)">
                            <path d="M198.75,144.375L210,150L198.75,155.625C201.563,152.812 201.563,147.188 198.75,144.375Z" style="fill:rgb(221,31,38);"/>
                            <path d="M150,150L201,150" style="fill:none;stroke:rgb(221,31,38);stroke-width:3.75px;"/>
                        </g>
                    </g>
                    <g transform="matrix(0,-0.30303,0.421683,-2.77556e-17,283.216,1207.45)">
                        <g transform="matrix(-1.98591e-16,2.16818,-3.3,0,2427,622.773)">
                            <path d="M144.375,101.25L150,90L155.625,101.25C152.812,98.437 147.188,98.437 144.375,101.25Z" style="fill:rgb(221,31,38);"/>
                            <path d="M150,150L150,99" style="fill:none;stroke:rgb(221,31,38);stroke-width:3.75px;"/>
                        </g>
                    </g>
                    <g transform="matrix(-0.277056,-3.71105e-17,5.16413e-17,-0.461216,1218.24,1059.23)">
                        <g transform="matrix(-3.3,2.65526e-16,-4.04133e-16,-2.16818,2427,1273.23)">
                            <path d="M101.25,155.625L90,150L101.25,144.375C98.437,147.188 98.437,152.812 101.25,155.625Z" style="fill:rgb(221,31,38);"/>
                            <path d="M150,150L99,150" style="fill:none;stroke:rgb(221,31,38);stroke-width:3.75px;"/>
                        </g>
                    </g>
                    <g transform="matrix(0.537815,0,0,0.588235,-1043.68,-85.3529)">
                        <circle cx="3210.5" cy="1202.5" r="25.5" style="fill:rgb(113,111,111);"/>
                    </g>
                </g>
            </g>
        </g>
    </g>
</svg>
