<?xml version="1.0" encoding="UTF-8" standalone="no"?>
<!DOCTYPE svg PUBLIC "-//W3C//DTD SVG 1.1//EN" "http://www.w3.org/Graphics/SVG/1.1/DTD/svg11.dtd">
<svg width="100%" height="100%" viewBox="0 0 2000 2000" version="1.1" xmlns="http://www.w3.org/2000/svg" xmlns:xlink="http://www.w3.org/1999/xlink" xml:space="preserve" xmlns:serif="http://www.serif.com/" style="fill-rule:evenodd;clip-rule:evenodd;stroke-miterlimit:1.5;">
    <g transform="matrix(0.445265,0,0,0.445265,688.419,-2856.94)">
        <g id="Layer-2" serif:id="Layer 2">
            <g id="g36868">
                <g id="g36320">
                    <path id="rect36298" d="M69.7,9420.21C69.7,9395.47 49.611,9375.38 24.865,9375.38C0.12,9375.38 -19.97,9395.47 -19.97,9420.21L-19.97,9828.21C-19.97,9852.96 0.12,9873.05 24.865,9873.05C49.611,9873.05 69.7,9852.96 69.7,9828.21L69.7,9420.21Z" style="fill:rgb(128,128,128);stroke:rgb(128,128,128);stroke-width:12.33px;"/>
                    <g id="g36306" transform="matrix(0.9025,0,0,0.9025,1166.45,1967.3)">
                        <path id="rect36300" d="M-1057.28,8653.72C-1057.28,8604.96 -1096.87,8565.37 -1145.63,8565.37L-1388.64,8565.37C-1437.4,8565.37 -1476.99,8604.96 -1476.99,8653.72L-1476.99,9346C-1476.99,9394.76 -1437.4,9434.35 -1388.64,9434.35L-1145.63,9434.35C-1096.87,9434.35 -1057.28,9394.76 -1057.28,9346L-1057.28,8653.72Z" style="fill:rgb(80,45,22);stroke:rgb(80,45,22);stroke-width:14.63px;"/>
                        <path id="rect36302" d="M-1066.32,8649.63C-1066.32,8602.97 -1104.2,8565.08 -1150.86,8565.08L-1383.41,8565.08C-1430.07,8565.08 -1467.95,8602.97 -1467.95,8649.63L-1467.95,9312.09C-1467.95,9358.76 -1430.07,9396.64 -1383.41,9396.64L-1150.86,9396.64C-1104.2,9396.64 -1066.32,9358.76 -1066.32,9312.09L-1066.32,8649.63Z" style="fill:rgb(200,113,55);stroke:rgb(80,45,22);stroke-width:14px;"/>
                        <path id="path36304" d="M-1274.07,8654.2L-1467.95,8654.2L-1467.95,8673.72L-1274.07,8673.72L-1274.07,8759.83L-1467.95,8759.83L-1467.95,8779.35L-1274.07,8779.35L-1274.07,8865.47L-1467.95,8865.47L-1467.95,8884.99L-1274.07,8884.99L-1274.07,8971.1L-1467.95,8971.1L-1467.95,8990.62L-1274.07,8990.62L-1274.07,9076.73L-1467.95,9076.73L-1467.95,9096.25L-1274.07,9096.25L-1274.07,9182.37L-1467.95,9182.37L-1467.95,9201.89L-1274.07,9201.89L-1274.07,9288L-1467.95,9288L-1467.95,9307.52L-1274.07,9307.52L-1274.21,9395.52L-1254.41,9394.52L-1254.55,9307.52L-1066.32,9307.52L-1066.32,9288L-1254.55,9288L-1254.55,9201.89L-1066.32,9201.89L-1066.32,9182.37L-1254.55,9182.37L-1254.55,9096.25L-1066.32,9096.25L-1066.32,9076.73L-1254.55,9076.73L-1254.55,8990.62L-1066.32,8990.62L-1066.32,8971.1L-1254.55,8971.1L-1254.55,8884.99L-1066.32,8884.99L-1066.32,8865.47L-1254.55,8865.47L-1254.55,8779.35L-1066.32,8779.35L-1066.32,8759.83L-1254.55,8759.83L-1254.55,8673.72L-1066.32,8673.72L-1066.32,8654.2L-1254.55,8654.2L-1254.41,8572.2L-1274.21,8569.2L-1274.07,8654.2Z" style="fill:rgb(80,45,22);fill-rule:nonzero;stroke:rgb(80,45,22);stroke-width:11.1px;"/>
                    </g>
                </g>
                <g id="g36406" transform="matrix(1,0,0,1,-2,-18.8457)">
                    <path id="rect36396" d="M69.7,8555.22C69.7,8530.47 49.611,8510.38 24.865,8510.38C0.12,8510.38 -19.97,8530.47 -19.97,8555.22L-19.97,8963.22C-19.97,8987.96 0.12,9008.05 24.865,9008.05C49.611,9008.05 69.7,8987.96 69.7,8963.22L69.7,8555.22Z" style="fill:rgb(128,128,128);stroke:rgb(128,128,128);stroke-width:12.33px;"/>
                    <g id="g36404" transform="matrix(0.9025,0,0,0.9025,1168.45,223.297)">
                        <path id="rect36398" d="M-1057.28,8653.72C-1057.28,8604.96 -1096.87,8565.37 -1145.63,8565.37L-1388.64,8565.37C-1437.4,8565.37 -1476.99,8604.96 -1476.99,8653.72L-1476.99,9346C-1476.99,9394.76 -1437.4,9434.35 -1388.64,9434.35L-1145.63,9434.35C-1096.87,9434.35 -1057.28,9394.76 -1057.28,9346L-1057.28,8653.72Z" style="fill:rgb(80,45,22);stroke:rgb(80,45,22);stroke-width:14.63px;"/>
                        <path id="rect36400" d="M-1066.32,8649.63C-1066.32,8602.97 -1104.2,8565.08 -1150.86,8565.08L-1383.41,8565.08C-1430.07,8565.08 -1467.95,8602.97 -1467.95,8649.63L-1467.95,9312.09C-1467.95,9358.76 -1430.07,9396.64 -1383.41,9396.64L-1150.86,9396.64C-1104.2,9396.64 -1066.32,9358.76 -1066.32,9312.09L-1066.32,8649.63Z" style="fill:rgb(200,113,55);stroke:rgb(80,45,22);stroke-width:14px;"/>
                        <path id="path36402" d="M-1274.07,8654.2L-1467.95,8654.2L-1467.95,8673.72L-1274.07,8673.72L-1274.07,8759.83L-1467.95,8759.83L-1467.95,8779.35L-1274.07,8779.35L-1274.07,8865.47L-1467.95,8865.47L-1467.95,8884.99L-1274.07,8884.99L-1274.07,8971.1L-1467.95,8971.1L-1467.95,8990.62L-1274.07,8990.62L-1274.07,9076.73L-1467.95,9076.73L-1467.95,9096.25L-1274.07,9096.25L-1274.07,9182.37L-1467.95,9182.37L-1467.95,9201.89L-1274.07,9201.89L-1274.07,9288L-1467.95,9288L-1467.95,9307.52L-1274.07,9307.52L-1274.21,9395.52L-1254.41,9394.52L-1254.55,9307.52L-1066.32,9307.52L-1066.32,9288L-1254.55,9288L-1254.55,9201.89L-1066.32,9201.89L-1066.32,9182.37L-1254.55,9182.37L-1254.55,9096.25L-1066.32,9096.25L-1066.32,9076.73L-1254.55,9076.73L-1254.55,8990.62L-1066.32,8990.62L-1066.32,8971.1L-1254.55,8971.1L-1254.55,8884.99L-1066.32,8884.99L-1066.32,8865.47L-1254.55,8865.47L-1254.55,8779.35L-1066.32,8779.35L-1066.32,8759.83L-1254.55,8759.83L-1254.55,8673.72L-1066.32,8673.72L-1066.32,8654.2L-1254.55,8654.2L-1254.41,8572.2L-1274.21,8569.2L-1274.07,8654.2Z" style="fill:rgb(80,45,22);fill-rule:nonzero;stroke:rgb(80,45,22);stroke-width:11.1px;"/>
                    </g>
                </g>
                <g id="g36389" transform="matrix(-0.5,0.866025,0.866025,0.5,-6248.06,3643.97)">
                    <g id="rect36381" transform="matrix(-3.82857e-16,-1,1,-3.82857e-16,0,0)">
                        <path d="M-9167.02,-926.585C-9167.02,-951.33 -9187.11,-971.42 -9211.86,-971.42C-9236.6,-971.42 -9256.69,-951.33 -9256.69,-926.585L-9256.69,-518.585C-9256.69,-493.84 -9236.6,-473.75 -9211.86,-473.75C-9187.11,-473.75 -9167.02,-493.84 -9167.02,-518.585L-9167.02,-926.585Z" style="fill:rgb(128,128,128);stroke:rgb(128,128,128);stroke-width:12.33px;"/>
                    </g>
                    <g id="rect36383" transform="matrix(-3.82857e-16,-1,1,-3.82857e-16,0,0)">
                        <path d="M-9022.47,-1456.3C-9022.47,-1496.01 -9054.71,-1528.26 -9094.43,-1528.26L-9329.29,-1528.26C-9369.01,-1528.26 -9401.26,-1496.01 -9401.26,-1456.3L-9401.26,-815.967C-9401.26,-776.25 -9369.01,-744.005 -9329.29,-744.005L-9094.43,-744.005C-9054.71,-744.005 -9022.47,-776.25 -9022.47,-815.967L-9022.47,-1456.3Z" style="fill:rgb(80,45,22);stroke:rgb(80,45,22);stroke-width:13.2px;"/>
                    </g>
                    <g id="rect36385" transform="matrix(-3.82857e-16,-1,1,-3.82857e-16,0,0)">
                        <path d="M-9021.62,-1439.66C-9021.62,-1477.66 -9052.48,-1508.52 -9090.49,-1508.52L-9315.24,-1508.52C-9353.24,-1508.52 -9384.1,-1477.66 -9384.1,-1439.66L-9384.1,-826.902C-9384.1,-788.895 -9353.24,-758.039 -9315.24,-758.039L-9090.49,-758.039C-9052.48,-758.039 -9021.62,-788.895 -9021.62,-826.902L-9021.62,-1439.66Z" style="fill:rgb(200,113,55);stroke:rgb(80,45,22);stroke-width:12.64px;"/>
                    </g>
                    <path id="path36387" d="M-1432.09,9210.12L-1432.09,9385.1L-1414.47,9385.1L-1414.47,9210.12L-1336.76,9210.12L-1336.76,9385.1L-1319.14,9385.1L-1319.14,9210.12L-1241.42,9210.12L-1241.42,9385.1L-1223.8,9385.1L-1223.8,9210.12L-1146.09,9210.12L-1146.09,9385.1L-1128.47,9385.1L-1128.47,9210.12L-1050.75,9210.12L-1050.75,9385.1L-1033.14,9385.1L-1033.14,9210.12L-955.42,9210.12L-955.42,9385.1L-937.802,9385.1L-937.802,9210.12L-860.085,9210.12L-860.085,9385.1L-842.468,9385.1L-842.468,9210.12L-763.048,9210.24L-763.951,9192.37L-842.468,9192.5L-842.468,9022.62L-860.085,9022.62L-860.085,9192.5L-937.802,9192.5L-937.802,9022.62L-955.42,9022.62L-955.42,9192.5L-1033.14,9192.5L-1033.14,9022.62L-1050.75,9022.62L-1050.75,9192.5L-1128.47,9192.5L-1128.47,9022.62L-1146.09,9022.62L-1146.09,9192.5L-1223.8,9192.5L-1223.8,9022.62L-1241.42,9022.62L-1241.42,9192.5L-1319.14,9192.5L-1319.14,9022.62L-1336.76,9022.62L-1336.76,9192.5L-1414.47,9192.5L-1414.47,9022.62L-1432.09,9022.62L-1432.09,9192.5L-1506.1,9192.37L-1508.8,9210.24L-1432.09,9210.12Z" style="fill:rgb(80,45,22);fill-rule:nonzero;stroke:rgb(80,45,22);stroke-width:10.02px;"/>
                </g>
                <g id="g36332" transform="matrix(0.5,-0.866025,0.866025,0.5,-6245.07,3640.27)">
                    <path id="rect36322" d="M69.7,9420.21C69.7,9395.47 49.611,9375.38 24.865,9375.38C0.12,9375.38 -19.97,9395.47 -19.97,9420.21L-19.97,9828.21C-19.97,9852.96 0.12,9873.05 24.865,9873.05C49.611,9873.05 69.7,9852.96 69.7,9828.21L69.7,9420.21Z" style="fill:rgb(128,128,128);stroke:rgb(128,128,128);stroke-width:12.33px;"/>
                    <g id="g36330" transform="matrix(0.9025,0,0,0.9025,1166.45,1967.3)">
                        <path id="rect36324" d="M-1057.28,8653.72C-1057.28,8604.96 -1096.87,8565.37 -1145.63,8565.37L-1388.64,8565.37C-1437.4,8565.37 -1476.99,8604.96 -1476.99,8653.72L-1476.99,9346C-1476.99,9394.76 -1437.4,9434.35 -1388.64,9434.35L-1145.63,9434.35C-1096.87,9434.35 -1057.28,9394.76 -1057.28,9346L-1057.28,8653.72Z" style="fill:rgb(80,45,22);stroke:rgb(80,45,22);stroke-width:14.63px;"/>
                        <path id="rect36326" d="M-1066.32,8649.63C-1066.32,8602.97 -1104.2,8565.08 -1150.86,8565.08L-1383.41,8565.08C-1430.07,8565.08 -1467.95,8602.97 -1467.95,8649.63L-1467.95,9312.09C-1467.95,9358.76 -1430.07,9396.64 -1383.41,9396.64L-1150.86,9396.64C-1104.2,9396.64 -1066.32,9358.76 -1066.32,9312.09L-1066.32,8649.63Z" style="fill:rgb(200,113,55);stroke:rgb(80,45,22);stroke-width:14px;"/>
                        <path id="path36328" d="M-1274.07,8654.2L-1467.95,8654.2L-1467.95,8673.72L-1274.07,8673.72L-1274.07,8759.83L-1467.95,8759.83L-1467.95,8779.35L-1274.07,8779.35L-1274.07,8865.47L-1467.95,8865.47L-1467.95,8884.99L-1274.07,8884.99L-1274.07,8971.1L-1467.95,8971.1L-1467.95,8990.62L-1274.07,8990.62L-1274.07,9076.73L-1467.95,9076.73L-1467.95,9096.25L-1274.07,9096.25L-1274.07,9182.37L-1467.95,9182.37L-1467.95,9201.89L-1274.07,9201.89L-1274.07,9288L-1467.95,9288L-1467.95,9307.52L-1274.07,9307.52L-1274.21,9395.52L-1254.41,9394.52L-1254.55,9307.52L-1066.32,9307.52L-1066.32,9288L-1254.55,9288L-1254.55,9201.89L-1066.32,9201.89L-1066.32,9182.37L-1254.55,9182.37L-1254.55,9096.25L-1066.32,9096.25L-1066.32,9076.73L-1254.55,9076.73L-1254.55,8990.62L-1066.32,8990.62L-1066.32,8971.1L-1254.55,8971.1L-1254.55,8884.99L-1066.32,8884.99L-1066.32,8865.47L-1254.55,8865.47L-1254.55,8779.35L-1066.32,8779.35L-1066.32,8759.83L-1254.55,8759.83L-1254.55,8673.72L-1066.32,8673.72L-1066.32,8654.2L-1254.55,8654.2L-1254.41,8572.2L-1274.21,8569.2L-1274.07,8654.2Z" style="fill:rgb(80,45,22);fill-rule:nonzero;stroke:rgb(80,45,22);stroke-width:11.1px;"/>
                    </g>
                </g>
                <g id="g36344" transform="matrix(0.5,-0.866025,0.866025,0.5,-6244.07,3638.54)">
                    <path id="rect36334" d="M69.7,8555.22C69.7,8530.47 49.611,8510.38 24.865,8510.38C0.12,8510.38 -19.97,8530.47 -19.97,8555.22L-19.97,8963.22C-19.97,8987.96 0.12,9008.05 24.865,9008.05C49.611,9008.05 69.7,8987.96 69.7,8963.22L69.7,8555.22Z" style="fill:rgb(128,128,128);stroke:rgb(128,128,128);stroke-width:12.33px;"/>
                    <g id="g36342" transform="matrix(0.9025,0,0,0.9025,1168.45,223.297)">
                        <path id="rect36336" d="M-1057.28,8653.72C-1057.28,8604.96 -1096.87,8565.37 -1145.63,8565.37L-1388.64,8565.37C-1437.4,8565.37 -1476.99,8604.96 -1476.99,8653.72L-1476.99,9346C-1476.99,9394.76 -1437.4,9434.35 -1388.64,9434.35L-1145.63,9434.35C-1096.87,9434.35 -1057.28,9394.76 -1057.28,9346L-1057.28,8653.72Z" style="fill:rgb(80,45,22);stroke:rgb(80,45,22);stroke-width:14.63px;"/>
                        <path id="rect36338" d="M-1066.32,8649.63C-1066.32,8602.97 -1104.2,8565.08 -1150.86,8565.08L-1383.41,8565.08C-1430.07,8565.08 -1467.95,8602.97 -1467.95,8649.63L-1467.95,9312.09C-1467.95,9358.76 -1430.07,9396.64 -1383.41,9396.64L-1150.86,9396.64C-1104.2,9396.64 -1066.32,9358.76 -1066.32,9312.09L-1066.32,8649.63Z" style="fill:rgb(200,113,55);stroke:rgb(80,45,22);stroke-width:14px;"/>
                        <path id="path36340" d="M-1274.07,8654.2L-1467.95,8654.2L-1467.95,8673.72L-1274.07,8673.72L-1274.07,8759.83L-1467.95,8759.83L-1467.95,8779.35L-1274.07,8779.35L-1274.07,8865.47L-1467.95,8865.47L-1467.95,8884.99L-1274.07,8884.99L-1274.07,8971.1L-1467.95,8971.1L-1467.95,8990.62L-1274.07,8990.62L-1274.07,9076.73L-1467.95,9076.73L-1467.95,9096.25L-1274.07,9096.25L-1274.07,9182.37L-1467.95,9182.37L-1467.95,9201.89L-1274.07,9201.89L-1274.07,9288L-1467.95,9288L-1467.95,9307.52L-1274.07,9307.52L-1274.21,9395.52L-1254.41,9394.52L-1254.55,9307.52L-1066.32,9307.52L-1066.32,9288L-1254.55,9288L-1254.55,9201.89L-1066.32,9201.89L-1066.32,9182.37L-1254.55,9182.37L-1254.55,9096.25L-1066.32,9096.25L-1066.32,9076.73L-1254.55,9076.73L-1254.55,8990.62L-1066.32,8990.62L-1066.32,8971.1L-1254.55,8971.1L-1254.55,8884.99L-1066.32,8884.99L-1066.32,8865.47L-1254.55,8865.47L-1254.55,8779.35L-1066.32,8779.35L-1066.32,8759.83L-1254.55,8759.83L-1254.55,8673.72L-1066.32,8673.72L-1066.32,8654.2L-1254.55,8654.2L-1254.41,8572.2L-1274.21,8569.2L-1274.07,8654.2Z" style="fill:rgb(80,45,22);fill-rule:nonzero;stroke:rgb(80,45,22);stroke-width:11.1px;"/>
                    </g>
                </g>
                <g id="g36379">
                    <g id="rect36289" transform="matrix(-3.82857e-16,-1,1,-3.82857e-16,0,0)">
                        <path d="M-9167.02,-926.585C-9167.02,-951.33 -9187.11,-971.42 -9211.86,-971.42C-9236.6,-971.42 -9256.69,-951.33 -9256.69,-926.585L-9256.69,-518.585C-9256.69,-493.84 -9236.6,-473.75 -9211.86,-473.75C-9187.11,-473.75 -9167.02,-493.84 -9167.02,-518.585L-9167.02,-926.585Z" style="fill:rgb(128,128,128);stroke:rgb(128,128,128);stroke-width:12.33px;"/>
                    </g>
                    <g id="g36394">
                        <g id="rect36282" transform="matrix(-3.82857e-16,-1,1,-3.82857e-16,0,0)">
                            <path d="M-9022.47,-1456.3C-9022.47,-1496.01 -9054.71,-1528.26 -9094.43,-1528.26L-9329.29,-1528.26C-9369.01,-1528.26 -9401.26,-1496.01 -9401.26,-1456.3L-9401.26,-815.967C-9401.26,-776.25 -9369.01,-744.005 -9329.29,-744.005L-9094.43,-744.005C-9054.71,-744.005 -9022.47,-776.25 -9022.47,-815.967L-9022.47,-1456.3Z" style="fill:rgb(80,45,22);stroke:rgb(80,45,22);stroke-width:13.2px;"/>
                        </g>
                        <g id="rect36250" transform="matrix(-3.82857e-16,-1,1,-3.82857e-16,0,0)">
                            <path d="M-9021.62,-1439.66C-9021.62,-1477.66 -9052.48,-1508.52 -9090.49,-1508.52L-9315.24,-1508.52C-9353.24,-1508.52 -9384.1,-1477.66 -9384.1,-1439.66L-9384.1,-826.902C-9384.1,-788.895 -9353.24,-758.039 -9315.24,-758.039L-9090.49,-758.039C-9052.48,-758.039 -9021.62,-788.895 -9021.62,-826.902L-9021.62,-1439.66Z" style="fill:rgb(200,113,55);stroke:rgb(80,45,22);stroke-width:12.64px;"/>
                        </g>
                        <path id="rect36252" d="M-1432.09,9210.12L-1432.09,9385.1L-1414.47,9385.1L-1414.47,9210.12L-1336.76,9210.12L-1336.76,9385.1L-1319.14,9385.1L-1319.14,9210.12L-1241.42,9210.12L-1241.42,9385.1L-1223.8,9385.1L-1223.8,9210.12L-1146.09,9210.12L-1146.09,9385.1L-1128.47,9385.1L-1128.47,9210.12L-1050.75,9210.12L-1050.75,9385.1L-1033.14,9385.1L-1033.14,9210.12L-955.42,9210.12L-955.42,9385.1L-937.802,9385.1L-937.802,9210.12L-860.085,9210.12L-860.085,9385.1L-842.468,9385.1L-842.468,9210.12L-763.048,9210.24L-763.951,9192.37L-842.468,9192.5L-842.468,9022.62L-860.085,9022.62L-860.085,9192.5L-937.802,9192.5L-937.802,9022.62L-955.42,9022.62L-955.42,9192.5L-1033.14,9192.5L-1033.14,9022.62L-1050.75,9022.62L-1050.75,9192.5L-1128.47,9192.5L-1128.47,9022.62L-1146.09,9022.62L-1146.09,9192.5L-1223.8,9192.5L-1223.8,9022.62L-1241.42,9022.62L-1241.42,9192.5L-1319.14,9192.5L-1319.14,9022.62L-1336.76,9022.62L-1336.76,9192.5L-1414.47,9192.5L-1414.47,9022.62L-1432.09,9022.62L-1432.09,9192.5L-1506.1,9192.37L-1508.8,9210.24L-1432.09,9210.12Z" style="fill:rgb(80,45,22);fill-rule:nonzero;stroke:rgb(80,45,22);stroke-width:10.02px;"/>
                    </g>
                </g>
                <g id="g36205" transform="matrix(-0.5,0.866025,0.866025,0.5,-6538.78,3933.5)">
                    <path id="rect36197" d="M427.869,9167.48C427.869,9142.61 407.681,9122.42 382.814,9122.42L-249.835,9122.42C-274.702,9122.42 -294.89,9142.61 -294.89,9167.48L-294.89,9464.73C-294.89,9489.59 -274.702,9509.78 -249.835,9509.78L382.814,9509.78C407.681,9509.78 427.869,9489.59 427.869,9464.73L427.869,9167.48Z" style="fill:rgb(128,128,128);stroke:rgb(128,128,128);stroke-width:4.72px;"/>
                    <path id="rect36199" d="M408.942,9169.35C408.942,9145.79 389.811,9126.66 366.246,9126.66L-233.267,9126.66C-256.832,9126.66 -275.963,9145.79 -275.963,9169.35L-275.963,9451.04C-275.963,9474.6 -256.832,9493.73 -233.267,9493.73L366.246,9493.73C389.811,9493.73 408.942,9474.6 408.942,9451.04L408.942,9169.35Z" style="fill:rgb(179,179,179);stroke:rgb(128,128,128);stroke-width:4.48px;"/>
                    <path id="rect36201" d="M192,9064.4C192,9022.29 157.81,8988.1 115.698,8988.1L-955.698,8988.1C-997.81,8988.1 -1032,9022.29 -1032,9064.4L-1032,9567.8C-1032,9609.91 -997.81,9644.1 -955.698,9644.1L115.698,9644.1C157.81,9644.1 192,9609.91 192,9567.8L192,9064.4Z" style="fill:rgb(128,128,128);stroke:rgb(128,128,128);stroke-width:8px;"/>
                    <path id="rect36203" d="M159.947,9067.59C159.947,9027.68 127.547,8995.28 87.64,8995.28L-927.64,8995.28C-967.547,8995.28 -999.947,9027.68 -999.947,9067.59L-999.947,9544.62C-999.947,9584.52 -967.547,9616.92 -927.64,9616.92L87.64,9616.92C127.547,9616.92 159.947,9584.52 159.947,9544.62L159.947,9067.59Z" style="fill:rgb(179,179,179);stroke:rgb(128,128,128);stroke-width:7.58px;"/>
                </g>
                <path id="rect36183" d="M873.94,9063.24C873.94,9038.37 853.751,9018.18 828.884,9018.18L196.236,9018.18C171.369,9018.18 151.18,9038.37 151.18,9063.24L151.18,9360.49C151.18,9385.35 171.369,9405.54 196.236,9405.54L828.884,9405.54C853.751,9405.54 873.94,9385.35 873.94,9360.49L873.94,9063.24Z" style="fill:rgb(128,128,128);stroke:rgb(128,128,128);stroke-width:4.72px;"/>
                <path id="rect36185" d="M855.013,9065.11C855.013,9041.55 835.881,9022.42 812.317,9022.42L212.804,9022.42C189.239,9022.42 170.108,9041.55 170.108,9065.11L170.108,9346.8C170.108,9370.36 189.239,9389.49 212.804,9389.49L812.317,9389.49C835.881,9389.49 855.013,9370.36 855.013,9346.8L855.013,9065.11Z" style="fill:rgb(179,179,179);stroke:rgb(128,128,128);stroke-width:4.48px;"/>
                <path id="rect36179" d="M638.071,8960.16C638.071,8918.05 603.881,8883.86 561.768,8883.86L-509.627,8883.86C-551.739,8883.86 -585.929,8918.05 -585.929,8960.16L-585.929,9463.56C-585.929,9505.67 -551.739,9539.86 -509.627,9539.86L561.768,9539.86C603.881,9539.86 638.071,9505.67 638.071,9463.56L638.071,8960.16Z" style="fill:rgb(128,128,128);stroke:rgb(128,128,128);stroke-width:8px;"/>
                <path id="rect36181" d="M606.017,8963.35C606.017,8923.44 573.618,8891.04 533.711,8891.04L-481.57,8891.04C-521.476,8891.04 -553.876,8923.44 -553.876,8963.35L-553.876,9440.38C-553.876,9480.28 -521.476,9512.68 -481.57,9512.68L533.711,9512.68C573.618,9512.68 606.017,9480.28 606.017,9440.38L606.017,8963.35Z" style="fill:rgb(179,179,179);"/>
                <g id="g36189" transform="matrix(0.866025,0.5,-0.5,0.866025,4738.29,908.316)">
                    <path id="path36177" d="M1240.99,8599.19L870.657,8600.63C852.337,8600.63 842.637,8602.47 833.467,8614.78L641.355,8947.42C634.747,8958.03 634.454,8972.69 641.754,8985.34L825.538,9303.66C834.086,9317.93 843.639,9329.91 861.417,9329.91L1242.07,9329.51C1253.48,9328.71 1264.74,9321.81 1271.4,9310.27L1463.91,8971.09C1465.94,8962.24 1464.6,8952.23 1459.4,8943.23L1271.92,8618.51C1264.95,8606.43 1252.93,8599.43 1240.99,8599.19Z" style="fill:rgb(128,128,128);fill-rule:nonzero;stroke:rgb(128,128,128);stroke-width:8.5px;"/>
                    <path id="rect36164" d="M1232.38,8605.72C1232.38,8605.72 878.795,8607.09 878.795,8607.09C861.304,8607.09 852.042,8608.84 843.287,8620.6L659.865,8938.2C653.556,8948.33 653.276,8962.32 660.246,8974.4L835.717,9278.32C843.878,9291.94 852.999,9303.38 869.973,9303.38L1233.41,9303.01C1244.3,9302.24 1255.06,9295.65 1261.41,9284.64L1445.21,8960.8C1447.15,8952.35 1445.87,8942.78 1440.91,8934.19L1261.91,8624.16C1255.26,8612.63 1243.78,8605.95 1232.38,8605.72Z" style="fill:rgb(179,179,179);fill-rule:nonzero;stroke:rgb(128,128,128);stroke-width:8.11px;"/>
                </g>
                <g id="g36444" transform="matrix(0.4,-0.69282,0.69282,0.4,-5432.69,5773.34)">
                    <path id="rect36408" d="M2387.7,9065.88C2387.7,9023.76 2353.51,8989.57 2311.4,8989.57L1862.11,8989.57C1820,8989.57 1785.81,9023.76 1785.81,9065.88L1785.81,9168.96C1785.81,9211.07 1820,9245.26 1862.11,9245.26L2311.4,9245.26C2353.51,9245.26 2387.7,9211.07 2387.7,9168.96L2387.7,9065.88Z" style="fill:rgb(128,128,128);stroke:rgb(128,128,128);stroke-width:11.2px;"/>
                    <path id="rect36410" d="M2358.36,9065.96C2358.36,9027.96 2327.5,8997.1 2289.49,8997.1L1884.01,8997.1C1846.01,8997.1 1815.15,9027.96 1815.15,9065.96L1815.15,9159C1815.15,9197 1846.01,9227.86 1884.01,9227.86L2289.49,9227.86C2327.5,9227.86 2358.36,9197 2358.36,9159L2358.36,9065.96Z" style="fill:rgb(209,255,247);stroke:rgb(209,255,247);stroke-width:10.11px;"/>
                    <path id="rect36412" d="M1721.55,8960.87C1701.46,8960.87 1685.29,8973.64 1685.29,8989.5L1685.29,9273.34C1685.29,9289.2 1701.46,9301.97 1721.55,9301.97L2451.96,9301.97C2472.05,9301.97 2488.22,9289.2 2488.22,9273.34L2488.22,8989.5C2488.22,8973.64 2472.05,8960.87 2451.96,8960.87L1721.55,8960.87ZM1739.81,8969.4L2433.7,8969.4C2452.78,8969.4 2468.15,8981.53 2468.15,8996.59L2468.15,9266.25C2468.15,9281.31 2452.78,9293.44 2433.7,9293.44L1739.8,9293.44C1720.72,9293.44 1705.36,9281.31 1705.36,9266.25L1705.36,8996.59C1705.36,8981.53 1720.72,8969.4 1739.8,8969.4Z" style="fill:rgb(128,128,128);fill-rule:nonzero;"/>
                </g>
                <g id="g36452" transform="matrix(0.165888,-0.287326,0.448948,0.2592,-2748.37,6829.48)">
                    <path id="rect36446" d="M2387.7,9107.32C2387.7,9042.34 2305.26,8989.57 2203.71,8989.57L1969.8,8989.57C1868.25,8989.57 1785.81,9042.34 1785.81,9107.32L1785.81,9127.51C1785.81,9192.5 1868.25,9245.26 1969.8,9245.26L2203.71,9245.26C2305.26,9245.26 2387.7,9192.5 2387.7,9127.51L2387.7,9107.32Z" style="fill:rgb(128,128,128);stroke:rgb(128,128,128);stroke-width:11.2px;"/>
                    <path id="rect36448" d="M2358.36,9103.37C2358.36,9044.72 2283.95,8997.1 2192.31,8997.1L1981.2,8997.1C1889.56,8997.1 1815.15,9044.72 1815.15,9103.37L1815.15,9121.59C1815.15,9180.24 1889.56,9227.86 1981.2,9227.86L2192.31,9227.86C2283.95,9227.86 2358.36,9180.24 2358.36,9121.59L2358.36,9103.37Z" style="fill:rgb(209,255,247);stroke:rgb(209,255,247);stroke-width:10.11px;"/>
                    <path id="path36450" d="M1721.55,8960.87C1701.46,8960.87 1685.29,8973.64 1685.29,8989.5L1685.29,9273.34C1685.29,9289.2 1701.46,9301.97 1721.55,9301.97L2451.96,9301.97C2472.05,9301.97 2488.22,9289.2 2488.22,9273.34L2488.22,8989.5C2488.22,8973.64 2472.05,8960.87 2451.96,8960.87L1721.55,8960.87ZM1739.81,8969.4L2433.7,8969.4C2452.78,8969.4 2468.15,8981.53 2468.15,8996.59L2468.15,9266.25C2468.15,9281.31 2452.78,9293.44 2433.7,9293.44L1739.8,9293.44C1720.72,9293.44 1705.36,9281.31 1705.36,9266.25L1705.36,8996.59C1705.36,8981.53 1720.72,8969.4 1739.8,8969.4Z" style="fill:rgb(128,128,128);fill-rule:nonzero;"/>
                </g>
                <circle id="path36454" cx="-242.929" cy="9211.86" r="169.675" style="fill:rgb(128,128,128);"/>
                <circle id="circle36456" cx="-242.929" cy="9211.86" r="157.98" style="fill:rgb(179,179,179);"/>
                <circle id="circle36458" cx="-242.929" cy="9211.86" r="128.963" style="fill:rgb(209,255,247);stroke:rgb(128,128,128);stroke-width:9.72px;"/>
                <circle id="circle36462" cx="-361.302" cy="9124.52" r="6.301" style="fill:rgb(128,128,128);stroke:rgb(128,128,128);stroke-width:4.65px;"/>
                <g id="circle36470" transform="matrix(0.5,0.866025,-0.866025,0.5,0,0)">
                    <circle cx="7737.24" cy="4728.46" r="6.301" style="fill:rgb(128,128,128);stroke:rgb(128,128,128);stroke-width:4.65px;"/>
                </g>
                <g id="circle36472" transform="matrix(-0.5,0.866025,-0.866025,-0.5,0,0)">
                    <circle cx="7979.41" cy="-4483.12" r="6.301" style="fill:rgb(128,128,128);stroke:rgb(128,128,128);stroke-width:4.65px;"/>
                </g>
                <g id="circle36474" transform="matrix(-1,0,0,-1,0,0)">
                    <circle cx="123.036" cy="-9298.64" r="6.301" style="fill:rgb(128,128,128);stroke:rgb(128,128,128);stroke-width:4.65px;"/>
                </g>
                <g id="circle36476" transform="matrix(-0.5,-0.866025,0.866025,-0.5,0,0)">
                    <circle cx="-7975.51" cy="-4902.57" r="6.301" style="fill:rgb(128,128,128);stroke:rgb(128,128,128);stroke-width:4.65px;"/>
                </g>
                <g id="circle36480" transform="matrix(0.5,-0.866025,0.866025,0.5,0,0)">
                    <circle cx="-8217.68" cy="4309.01" r="6.301" style="fill:rgb(128,128,128);stroke:rgb(128,128,128);stroke-width:4.65px;"/>
                </g>
                <circle id="circle36558" cx="295.071" cy="9211.86" r="169.675" style="fill:rgb(128,128,128);"/>
                <circle id="circle36560" cx="295.071" cy="9211.86" r="157.98" style="fill:rgb(179,179,179);"/>
                <circle id="circle36562" cx="295.071" cy="9211.86" r="128.963" style="fill:rgb(209,255,247);stroke:rgb(128,128,128);stroke-width:9.72px;"/>
                <circle id="circle36564" cx="176.698" cy="9124.52" r="6.301" style="fill:rgb(128,128,128);stroke:rgb(128,128,128);stroke-width:4.65px;"/>
                <g id="circle36566" transform="matrix(0.5,0.866025,-0.866025,0.5,0,0)">
                    <circle cx="8006.24" cy="4262.53" r="6.301" style="fill:rgb(128,128,128);stroke:rgb(128,128,128);stroke-width:4.65px;"/>
                </g>
                <g id="circle36568" transform="matrix(-0.5,0.866025,-0.866025,-0.5,0,0)">
                    <circle cx="7710.41" cy="-4949.05" r="6.301" style="fill:rgb(128,128,128);stroke:rgb(128,128,128);stroke-width:4.65px;"/>
                </g>
                <g id="circle36570" transform="matrix(-1,0,0,-1,0,0)">
                    <circle cx="-414.964" cy="-9298.64" r="6.301" style="fill:rgb(128,128,128);stroke:rgb(128,128,128);stroke-width:4.65px;"/>
                </g>
                <g id="circle36572" transform="matrix(-0.5,-0.866025,0.866025,-0.5,0,0)">
                    <circle cx="-8244.51" cy="-4436.65" r="6.301" style="fill:rgb(128,128,128);stroke:rgb(128,128,128);stroke-width:4.65px;"/>
                </g>
                <g id="circle36574" transform="matrix(0.5,-0.866025,0.866025,0.5,0,0)">
                    <circle cx="-7948.68" cy="4774.93" r="6.301" style="fill:rgb(128,128,128);stroke:rgb(128,128,128);stroke-width:4.65px;"/>
                </g>
                <g id="g36683" transform="matrix(0.866025,-0.5,0.5,0.866025,-5266,1620.93)">
                    <path id="rect36608" d="M1960.9,9551.5C1960.9,9530.57 1943.91,9513.57 1922.98,9513.57L1640.98,9513.57C1620.05,9513.57 1603.06,9530.57 1603.06,9551.5L1603.06,10003.5C1603.06,10024.4 1620.05,10041.4 1640.98,10041.4L1922.98,10041.4C1943.91,10041.4 1960.9,10024.4 1960.9,10003.5L1960.9,9551.5Z" style="fill:rgb(128,128,128);stroke:rgb(128,128,128);stroke-width:8.46px;"/>
                    <path id="rect36610" d="M1950.68,9554.41C1950.68,9534.68 1934.66,9518.66 1914.92,9518.66L1649.04,9518.66C1629.31,9518.66 1613.29,9534.68 1613.29,9554.41L1613.29,9980.55C1613.29,10000.3 1629.31,10016.3 1649.04,10016.3L1914.92,10016.3C1934.66,10016.3 1950.68,10000.3 1950.68,9980.55L1950.68,9554.41Z" style="fill:rgb(179,179,179);stroke:rgb(128,128,128);stroke-width:7.97px;"/>
                    <path id="rect36612" d="M1919.35,9584.47C1919.35,9568.4 1906.3,9555.35 1890.23,9555.35L1673.73,9555.35C1657.66,9555.35 1644.62,9568.4 1644.62,9584.47L1644.62,9713.54C1644.62,9729.61 1657.66,9742.66 1673.73,9742.66L1890.23,9742.66C1906.3,9742.66 1919.35,9729.61 1919.35,9713.54L1919.35,9584.47Z" style="fill:rgb(128,128,128);fill-opacity:0.93;stroke:rgb(128,128,128);stroke-opacity:0.93;stroke-width:4.41px;"/>
                    <path id="rect36614" d="M1919.35,9817.19C1919.35,9801.12 1906.3,9788.07 1890.23,9788.07L1673.73,9788.07C1657.66,9788.07 1644.62,9801.12 1644.62,9817.19L1644.62,9946.27C1644.62,9962.34 1657.66,9975.38 1673.73,9975.38L1890.23,9975.38C1906.3,9975.38 1919.35,9962.34 1919.35,9946.27L1919.35,9817.19Z" style="fill:rgb(128,128,128);fill-opacity:0.93;stroke:rgb(128,128,128);stroke-opacity:0.93;stroke-width:4.41px;"/>
                    <path id="rect36622" d="M1905.75,9597.22C1905.75,9582.74 1894,9570.98 1879.52,9570.98L1684.44,9570.98C1669.97,9570.98 1658.21,9582.74 1658.21,9597.22L1658.21,9680.8C1658.21,9695.27 1669.97,9707.03 1684.44,9707.03L1879.52,9707.03C1894,9707.03 1905.75,9695.27 1905.75,9680.8L1905.75,9597.22Z" style="fill:rgb(179,179,179);stroke:rgb(179,179,179);stroke-width:3.57px;"/>
                    <path id="rect36624" d="M1905.75,9834.94C1905.75,9820.46 1894,9808.7 1879.52,9808.7L1684.44,9808.7C1669.97,9808.7 1658.21,9820.46 1658.21,9834.94L1658.21,9918.52C1658.21,9933 1669.97,9944.75 1684.44,9944.75L1879.52,9944.75C1894,9944.75 1905.75,9933 1905.75,9918.52L1905.75,9834.94Z" style="fill:rgb(179,179,179);stroke:rgb(179,179,179);stroke-width:3.57px;"/>
                    <path id="path36634" d="M1862,9823.83C1852.54,9818.37 1841.82,9815.49 1830.9,9815.49C1808.7,9815.49 1788.13,9827.37 1777.03,9846.59C1771.57,9856.05 1768.7,9866.77 1768.7,9877.69C1768.7,9899.89 1780.58,9920.46 1799.8,9931.56C1809.25,9937.01 1819.98,9939.89 1830.9,9939.89C1853.09,9939.89 1873.66,9928.01 1884.76,9908.79C1901.82,9879.24 1891.55,9840.89 1862,9823.83ZM1850.12,9836.66C1850.12,9836.66 1834.29,9864.07 1834.29,9864.07C1828.23,9862.56 1821.86,9865.26 1818.74,9870.67C1818.12,9871.73 1817.66,9872.86 1817.34,9874.04L1785.75,9874.04C1786.28,9867.34 1788.28,9860.85 1791.63,9855.02C1803.35,9834.76 1828.92,9826.73 1850.12,9836.66ZM1856.83,9840.53C1876.02,9853.92 1881.86,9880.09 1870.16,9900.36C1866.79,9906.17 1862.17,9911.16 1856.63,9914.96L1840.83,9887.6C1841.7,9886.74 1842.45,9885.77 1843.06,9884.71C1846.18,9879.31 1845.33,9872.44 1841,9867.95L1856.83,9840.53ZM1817.48,9881.79C1818.52,9885.19 1820.8,9888.07 1823.88,9889.85C1826.96,9891.63 1830.6,9892.17 1834.06,9891.36L1849.91,9918.82C1836.55,9925.01 1820.98,9924.31 1808.23,9916.96C1795.49,9909.58 1787.12,9896.45 1785.8,9881.79L1817.48,9881.79Z" style="fill:rgb(128,128,128);fill-rule:nonzero;stroke:rgb(128,128,128);stroke-width:6.02px;"/>
                </g>
                <g id="circle36739" transform="matrix(0.5,0.866025,-0.866025,0.5,0,0)">
                    <circle cx="7820.45" cy="2783.06" r="6.301" style="fill:rgb(128,128,128);stroke:rgb(128,128,128);stroke-width:4.65px;"/>
                </g>
                <g id="circle36741" transform="matrix(0.5,0.866025,-0.866025,0.5,0,0)">
                    <circle cx="8001.78" cy="2672.98" r="6.301" style="fill:rgb(128,128,128);stroke:rgb(128,128,128);stroke-width:4.65px;"/>
                </g>
                <g id="circle36743" transform="matrix(0.5,0.866025,-0.866025,0.5,0,0)">
                    <circle cx="7723.56" cy="2202.89" r="6.301" style="fill:rgb(128,128,128);stroke:rgb(128,128,128);stroke-width:4.65px;"/>
                </g>
                <g id="circle36745" transform="matrix(0.5,0.866025,-0.866025,0.5,0,0)">
                    <circle cx="7545.22" cy="2307.77" r="6.301" style="fill:rgb(128,128,128);stroke:rgb(128,128,128);stroke-width:4.65px;"/>
                </g>
                <g id="circle36747" transform="matrix(0.5,0.866025,-0.866025,0.5,0,0)">
                    <circle cx="8291" cy="2960.05" r="6.301" style="fill:rgb(128,128,128);stroke:rgb(128,128,128);stroke-width:4.65px;"/>
                </g>
                <g id="circle36749" transform="matrix(0.5,0.866025,-0.866025,0.5,0,0)">
                    <circle cx="8406.16" cy="2892.59" r="6.301" style="fill:rgb(128,128,128);stroke:rgb(128,128,128);stroke-width:4.65px;"/>
                </g>
                <g id="circle36751" transform="matrix(0.5,0.866025,-0.866025,0.5,0,0)">
                    <circle cx="8297.61" cy="2700.6" r="6.301" style="fill:rgb(128,128,128);stroke:rgb(128,128,128);stroke-width:4.65px;"/>
                </g>
                <g id="circle36753" transform="matrix(0.5,0.866025,-0.866025,0.5,0,0)">
                    <circle cx="8297.61" cy="2700.6" r="6.301" style="fill:rgb(128,128,128);stroke:rgb(128,128,128);stroke-width:4.65px;"/>
                </g>
                <g id="circle36755" transform="matrix(0.5,0.866025,-0.866025,0.5,0,0)">
                    <circle cx="8358.19" cy="3691.66" r="6.301" style="fill:rgb(128,128,128);stroke:rgb(128,128,128);stroke-width:4.65px;"/>
                </g>
                <g id="circle36757" transform="matrix(0.5,0.866025,-0.866025,0.5,0,0)">
                    <circle cx="8359.86" cy="3484.78" r="6.301" style="fill:rgb(128,128,128);stroke:rgb(128,128,128);stroke-width:4.65px;"/>
                </g>
                <g id="circle36759" transform="matrix(0.5,0.866025,-0.866025,0.5,0,0)">
                    <circle cx="8458.61" cy="3481.75" r="6.301" style="fill:rgb(128,128,128);stroke:rgb(128,128,128);stroke-width:4.65px;"/>
                </g>
                <g id="circle36761" transform="matrix(0.5,0.866025,-0.866025,0.5,0,0)">
                    <circle cx="8460.64" cy="3694.23" r="6.301" style="fill:rgb(128,128,128);stroke:rgb(128,128,128);stroke-width:4.65px;"/>
                </g>
                <g id="circle36763" transform="matrix(0.5,0.866025,-0.866025,0.5,0,0)">
                    <circle cx="8594.5" cy="3688.38" r="6.301" style="fill:rgb(128,128,128);stroke:rgb(128,128,128);stroke-width:4.65px;"/>
                </g>
                <g id="circle36765" transform="matrix(0.5,0.866025,-0.866025,0.5,0,0)">
                    <circle cx="8596.16" cy="3481.49" r="6.301" style="fill:rgb(128,128,128);stroke:rgb(128,128,128);stroke-width:4.65px;"/>
                </g>
                <g id="circle36767" transform="matrix(0.5,0.866025,-0.866025,0.5,0,0)">
                    <circle cx="8694.91" cy="3478.46" r="6.301" style="fill:rgb(128,128,128);stroke:rgb(128,128,128);stroke-width:4.65px;"/>
                </g>
                <g id="circle36769" transform="matrix(0.5,0.866025,-0.866025,0.5,0,0)">
                    <circle cx="8696.94" cy="3690.94" r="6.301" style="fill:rgb(128,128,128);stroke:rgb(128,128,128);stroke-width:4.65px;"/>
                </g>
            </g>
        </g>
    </g>
</svg>
