<?xml version="1.0" encoding="UTF-8" standalone="no"?>
<!DOCTYPE svg PUBLIC "-//W3C//DTD SVG 1.1//EN" "http://www.w3.org/Graphics/SVG/1.1/DTD/svg11.dtd">
<svg width="100%" height="100%" viewBox="0 0 372 372" version="1.1" xmlns="http://www.w3.org/2000/svg" xmlns:xlink="http://www.w3.org/1999/xlink" xml:space="preserve" xmlns:serif="http://www.serif.com/" style="fill-rule:evenodd;clip-rule:evenodd;stroke-linejoin:round;stroke-miterlimit:2;">
    <g transform="matrix(1,0,0,1,-1033.5,-177)">
        <g transform="matrix(1,0,0,1,-37,684)">
            <g transform="matrix(1,0,0,1,363,-837)">
                <g id="Yellow-Sun" serif:id="Yellow Sun">
                    <circle id="Yellow-Sun1" serif:id="Yellow Sun" cx="893.25" cy="515.75" r="182.25" style="fill:rgb(255,240,109);"/>
                    <clipPath id="_clip1">
                        <circle id="Yellow-Sun2" serif:id="Yellow Sun" cx="893.25" cy="515.75" r="182.25"/>
                    </clipPath>
                    <g clip-path="url(#_clip1)">
                        <g transform="matrix(0.975207,0,0,0.975207,-861.653,-121.752)">
                            <circle cx="1829" cy="615" r="121" style="fill:rgb(255,227,104);"/>
                        </g>
                        <g transform="matrix(0.611918,0,0,0.611918,-176.168,76.1135)">
                            <circle cx="1829" cy="615" r="121" style="fill:rgb(255,212,104);"/>
                        </g>
                    </g>
                    <path id="Yellow-Sun3" serif:id="Yellow Sun" d="M893.25,330.354C842.305,330.919 796.377,352.043 763.303,385.803C730.493,419.293 710.315,465.211 710.791,515.75C710.764,566.112 731.287,611.645 764.203,644.797C797.212,678.045 842.745,698.901 893.25,699.237C944.017,699.576 990.197,679.298 1023.64,646.145C1037.33,632.586 1048.9,616.878 1057.72,599.545C1070.51,574.403 1077.49,545.87 1077.31,515.75C1077.17,490.831 1071.95,467.143 1062.96,445.46C1053.64,422.993 1040.21,402.662 1023.4,385.596C990.215,351.899 944.235,330.815 893.25,330.354ZM893.25,336.646C942.856,336.197 988,355.923 1020.79,388.214C1037.55,404.725 1051.19,424.476 1060.35,446.541C1069.2,467.839 1073.83,491.267 1073.69,515.75C1073.52,545.194 1066.18,572.903 1053.59,597.434C1044.92,614.312 1033.77,629.697 1020.55,643.045C988.01,675.87 943.071,696.431 893.25,696.763C843.166,697.096 797.578,677.127 764.607,644.393C731.545,611.567 711.236,565.975 711.209,515.75C711.681,465.698 732.34,420.501 765.507,388.007C798.407,355.776 843.603,336.095 893.25,336.646Z"/>
                </g>
            </g>
        </g>
    </g>
</svg>
