<?xml version="1.0" encoding="UTF-8" standalone="no"?>
<!DOCTYPE svg PUBLIC "-//W3C//DTD SVG 1.1//EN" "http://www.w3.org/Graphics/SVG/1.1/DTD/svg11.dtd">
<svg width="100%" height="100%" viewBox="0 0 285 285" version="1.1" xmlns="http://www.w3.org/2000/svg" xmlns:xlink="http://www.w3.org/1999/xlink" xml:space="preserve" xmlns:serif="http://www.serif.com/" style="fill-rule:evenodd;clip-rule:evenodd;stroke-linejoin:round;stroke-miterlimit:2;">
    <g transform="matrix(1,0,0,1,-1422.5,-220.5)">
        <g transform="matrix(1,0,0,1,-37,684)">
            <g transform="matrix(0.761317,0,0,0.761317,921.704,-713.899)">
                <g id="Red-Dwarf" serif:id="Red Dwarf">
                    <circle id="Red-Dwarf1" serif:id="Red Dwarf" cx="893.25" cy="515.75" r="182.25" style="fill:rgb(255,3,3);"/>
                    <clipPath id="_clip1">
                        <circle id="Red-Dwarf2" serif:id="Red Dwarf" cx="893.25" cy="515.75" r="182.25"/>
                    </clipPath>
                    <g clip-path="url(#_clip1)">
                        <g transform="matrix(0.975207,0,0,0.975207,-861.653,-121.752)">
                            <circle cx="1829" cy="615" r="121" style="fill:rgb(220,17,0);"/>
                        </g>
                        <g transform="matrix(0.611918,0,0,0.611918,-176.168,76.1135)">
                            <circle cx="1829" cy="615" r="121" style="fill:rgb(190,14,0);"/>
                        </g>
                    </g>
                    <path id="Red-Dwarf3" serif:id="Red Dwarf" d="M893.25,329.368C842.099,330.113 796.058,351.453 762.958,385.458C730.204,419.106 710.099,465.133 710.726,515.75C710.69,566.133 731.247,611.657 764.139,644.861C797.155,678.19 842.679,699.183 893.25,699.625C944.166,700.071 990.537,679.835 1024.13,646.631C1037.88,633.039 1049.53,617.28 1058.37,599.876C1071.18,574.637 1078.11,545.977 1077.88,515.75C1077.69,490.762 1072.38,467.034 1063.37,445.291C1054.02,422.759 1040.63,402.34 1023.81,385.186C990.564,351.264 944.452,329.976 893.25,329.368ZM893.25,337.632C942.641,337.045 987.654,356.55 1020.38,388.624C1037.13,405.049 1050.8,424.708 1059.94,446.711C1068.77,467.948 1073.3,491.336 1073.12,515.75C1072.89,545.088 1065.5,572.668 1052.94,597.103C1044.3,613.91 1033.22,629.245 1020.06,642.558C987.666,675.332 942.924,695.94 893.25,696.375C843.231,696.812 797.636,676.984 764.671,644.329C731.586,611.554 711.31,565.954 711.274,515.75C711.893,465.773 732.63,420.692 765.852,388.352C798.723,356.356 843.805,336.912 893.25,337.632Z"/>
                </g>
            </g>
        </g>
    </g>
</svg>
