<?xml version="1.0" encoding="UTF-8" standalone="no"?>
<!DOCTYPE svg PUBLIC "-//W3C//DTD SVG 1.1//EN" "http://www.w3.org/Graphics/SVG/1.1/DTD/svg11.dtd">
<svg width="100%" height="100%" viewBox="0 0 485 485" version="1.1" xmlns="http://www.w3.org/2000/svg" xmlns:xlink="http://www.w3.org/1999/xlink" xml:space="preserve" xmlns:serif="http://www.serif.com/" style="fill-rule:evenodd;clip-rule:evenodd;stroke-linejoin:round;stroke-miterlimit:2;">
    <g transform="matrix(1,0,0,1,-529.25,-120.5)">
        <g transform="matrix(1,0,0,1,-37,684)">
            <g transform="matrix(1.31001,0,0,1.31001,-361.67,-996.89)">
                <g id="Blue-Sun" serif:id="Blue Sun">
                    <circle id="Blue-Sun1" serif:id="Blue Sun" cx="893.25" cy="515.75" r="182.25" style="fill:rgb(63,204,255);"/>
                    <clipPath id="_clip1">
                        <circle id="Blue-Sun2" serif:id="Blue Sun" cx="893.25" cy="515.75" r="182.25"/>
                    </clipPath>
                    <g clip-path="url(#_clip1)">
                        <g transform="matrix(0.975207,0,0,0.975207,-861.653,-121.752)">
                            <circle cx="1829" cy="615" r="121" style="fill:rgb(53,192,255);"/>
                        </g>
                        <g transform="matrix(0.611918,0,0,0.611918,-176.168,76.1135)">
                            <circle cx="1829" cy="615" r="121" style="fill:rgb(41,182,255);"/>
                        </g>
                    </g>
                    <path id="Blue-Sun3" serif:id="Blue Sun" d="M893.25,331.099C842.46,331.529 796.619,352.488 763.564,386.064C730.711,419.435 710.477,465.27 710.841,515.75C710.82,566.095 731.318,611.636 764.251,644.749C797.255,677.935 842.796,698.688 893.25,698.944C943.905,699.202 989.939,678.892 1023.28,645.778C1036.91,632.243 1048.43,616.574 1057.23,599.295C1069.99,574.226 1077.02,545.79 1076.88,515.75C1076.78,490.883 1071.62,467.225 1062.65,445.588C1053.35,423.168 1039.9,402.906 1023.09,385.906C989.952,352.377 944.071,331.45 893.25,331.099ZM893.25,335.901C943.018,335.558 988.261,355.449 1021.1,387.904C1037.87,404.48 1051.48,424.301 1060.66,446.413C1069.53,467.756 1074.22,491.216 1074.12,515.75C1073.99,545.274 1066.69,573.081 1054.08,597.684C1045.39,614.616 1034.19,630.038 1020.91,643.411C988.27,676.276 943.183,696.801 893.25,697.056C843.117,697.31 797.534,677.235 764.56,644.44C731.514,611.576 711.18,565.991 711.159,515.75C711.52,465.642 732.121,420.357 765.246,387.746C798.167,355.337 843.451,335.48 893.25,335.901Z"/>
                </g>
            </g>
        </g>
    </g>
</svg>
